<svg width="79" height="105" fill="none" xmlns="http://www.w3.org/2000/svg"><path d="M76.31 8.96H20.656C19.665 3.3 14.272-.485 8.61.506A10.406 10.406 0 000 10.695v84.981h.156a10.417 10.417 0 0010.25 8.672h48.56c.958 0 1.735-.777 1.735-1.735V97.41H76.31c.957 0 1.734-.776 1.734-1.734V10.695c0-.958-.777-1.734-1.734-1.734zM3.469 10.696a6.937 6.937 0 0113.874 0v75.512a10.345 10.345 0 00-13.874 0V10.695zm53.763 90.184H10.406a6.937 6.937 0 116.937-6.937v1.734c0 .958.777 1.734 1.734 1.734h38.155v3.469zm17.343-6.937H20.812V12.429h53.763v81.513z" fill="#EC405D"/><path d="M69.368 15.898H26.011c-.958 0-1.735.777-1.735 1.735v17.343c0 .958.777 1.734 1.735 1.734h43.357c.958 0 1.735-.776 1.735-1.734V17.633c0-.958-.777-1.735-1.735-1.735zm-1.734 17.343h-39.89V19.367h39.89v13.875zm-20.812 6.937H26.011c-.958 0-1.735.776-1.735 1.734v19.077c0 .958.777 1.735 1.735 1.735h20.811c.958 0 1.735-.777 1.735-1.735V41.912c0-.958-.777-1.734-1.735-1.734zm-1.734 19.077H27.745V43.646h17.343v15.61zm24.282 6.938H48.558c-.957 0-1.734.777-1.734 1.735v20.811c0 .958.777 1.735 1.734 1.735H69.37c.958 0 1.734-.777 1.734-1.735V67.928c0-.958-.776-1.735-1.734-1.735zm-1.734 20.812H50.293V69.662h17.343v17.343zm3.474-45.093H52.033v3.469H71.11v-3.469zm0 6.938H52.033v3.468H71.11V48.85zm0 6.937H52.033v3.469H71.11v-3.469zM43.354 66.193H24.276v3.469h19.078v-3.469zm0 6.937H24.276v3.47h19.078v-3.47zm0 6.936H24.276v3.469h19.078v-3.469zm0 6.938H24.276v3.468h19.078v-3.468z" fill="#EC405D"/></svg>