<svg width="35" height="35" fill="none" xmlns="http://www.w3.org/2000/svg"><path d="M34.49.455l-.005-.004A1.565 1.565 0 0033.391 0h-.002c-.351 0-.695.12-.968.34a528.424 528.424 0 00-13.744 11.365L8.57 1.598a2.563 2.563 0 00-3.62 0l-4.8 4.8a.512.512 0 00.724.724L4.226 3.77l.733.732-3.352 3.353a.512.512 0 00.723.724l3.353-3.353.732.733L3.063 9.31a.512.512 0 00.724.724l3.352-3.352.733.732-3.352 3.353a.512.512 0 00.724.724l3.352-3.353.732.733-3.352 3.352a.512.512 0 00.724.724l3.352-3.352.733.733-3.352 3.352a.512.512 0 00.724.724l3.352-3.352.732.732-3.352 3.352a.512.512 0 00.724.724l3.352-3.352.733.733-3.352 3.352a.512.512 0 00.724.724l3.352-3.352.758.758a531.471 531.471 0 00-4.68 4.127h-.001c-.46.409-.96.88-1.455 1.325a.515.515 0 00-.094.755c.493.597.765 1.358.765 2.146 0 .92-.354 1.782-.997 2.425l-1.544 1.544c-2.227 2.278-6.147.724-6.15-2.503a3.58 3.58 0 013.583-3.578 3.578 3.578 0 012.788 1.329.513.513 0 00.741.057l.008-.007.005-.004a.512.512 0 00-.046-.796A4.6 4.6 0 004.61 19.94h-.007a4.604 4.604 0 101.412 8.99c-.96 2.987 1.275 6.018 4.382 6.018h.005a4.602 4.602 0 004.605-4.605 4.571 4.571 0 00-1.312-3.22l1.045-1.188a553.962 553.962 0 005.47-6.18l.772.77-3.352 3.353a.512.512 0 00.724.724l3.352-3.352.733.732-3.353 3.352a.512.512 0 10.724.724l3.353-3.352.732.733-3.352 3.352a.512.512 0 10.724.724l3.352-3.352.733.732L22 28.248a.512.512 0 00.724.724l3.352-3.353.733.733-3.353 3.352a.512.512 0 00.724.724l3.353-3.352.732.732-3.352 3.353a.512.512 0 00.724.724l3.352-3.353.733.733-3.353 3.352a.512.512 0 00.724.724l3.353-3.352.732.732-3.352 3.353a.512.512 0 10.724.724l3.714-3.714v-.001l1.086-1.086a2.54 2.54 0 00.75-1.81c0-.683-.266-1.326-.75-1.81L23.231 16.26A517.516 517.516 0 0034.607 2.525a1.553 1.553 0 00-.116-2.07zM4.95 3.045l.724-.723a1.538 1.538 0 012.172 0l10.052 10.052c-.649.557-1.297 1.115-1.943 1.676L4.95 3.046zm27.675 24.056c.29.29.45.675.45 1.086 0 .41-.16.796-.45 1.086l-.724.724-11.017-11.018c.561-.646 1.121-1.293 1.678-1.94L32.625 27.1zm-18.363-2.17c-.248-.19-.91-.518-1.02-1.453a.511.511 0 10-1.016.12 2.79 2.79 0 001.243 2.024c.037.024.073.049.11.076-.355.405-.648.746-.984 1.117a.515.515 0 00.057.742 3.57 3.57 0 011.33 2.785 3.578 3.578 0 01-3.583 3.58 3.581 3.581 0 01-3.583-3.58c.002-1.62 1.027-2.488 1.106-2.599l1.518-1.519a4.445 4.445 0 001.299-3.149c0-.863-.247-1.696-.714-2.409.401-.366.75-.691 1.155-1.052l.002-.003C22.28 9.715 32.928 1.207 33.129 1.093c-.137.137-20.11 20.102-20.202 20.206a.512.512 0 00.766.68c.06-.07 20.014-20.016 20.16-20.163-.041.074-8.286 10.516-19.59 23.115z" fill="#fff"/><path d="M6.418 22.734c-1.615-1.615-4.37-.451-4.37 1.81 0 .683.266 1.326.75 1.81a2.552 2.552 0 001.81.748 2.56 2.56 0 001.81-4.367zm-.724 2.895a1.538 1.538 0 01-2.172 0c-.96-.959-.288-2.62 1.086-2.62 1.377 0 2.04 1.666 1.086 2.62zm4.706 2.154a2.515 2.515 0 00-2.36 1.577 2.52 2.52 0 00.55 2.792 2.517 2.517 0 002.785.551 2.52 2.52 0 001.584-2.36 2.562 2.562 0 00-2.56-2.56zm.583 3.975a1.512 1.512 0 01-1.67-.33c-.532-.533-.518-1.215-.327-1.676a1.51 1.51 0 011.413-.945c.847 0 1.536.689 1.536 1.535 0 .753-.492 1.225-.952 1.416z" fill="#fff"/></svg>