<svg width="582" height="474" fill="none" xmlns="http://www.w3.org/2000/svg"><path d="M47.462 317.028c-19.407-12.512-22.739-39.547-6.95-56.397l195.515-208.66a36.999 36.999 0 0135.125-10.797l363.147 81.749c26.328 5.927 36.814 37.799 19.147 58.2a35.708 35.708 0 00-4.955 7.428l-31.29 62.692a37 37 0 01-17.378 16.967L254.991 430.148a37.001 37.001 0 01-35.776-2.393L47.462 317.028z" fill="#FFC9D2"/><path d="M47.462 298.503c-19.407-12.512-22.74-39.547-6.951-56.397L236.026 33.447a37 37 0 0135.125-10.798l363.147 81.749c26.329 5.927 36.815 37.799 19.148 58.201a35.68 35.68 0 00-4.956 7.427l-31.29 62.692a36.995 36.995 0 01-17.378 16.967L254.991 411.623a37.001 37.001 0 01-35.776-2.393L47.462 298.503z" fill="url(#paint0_linear)"/><defs><linearGradient id="paint0_linear" x1="353.253" y1="167.022" x2="19.258" y2="186.084" gradientUnits="userSpaceOnUse"><stop stop-color="#EC405D"/><stop offset="1" stop-color="#C1223D"/></linearGradient></defs></svg>