<svg width="88" height="199" fill="none" xmlns="http://www.w3.org/2000/svg"><path d="M61.511 138.782c1.678 5.563-2.094 11.286-7.867 11.939l-71.52 8.088a9.31 9.31 0 01-8.492-3.661l-56.258-74.921c-4.079-5.432-.888-13.251 5.827-14.278a8.987 8.987 0 002.161-.615l16.227-6.91a9.31 9.31 0 016.097-.416l92.511 25.23a9.31 9.31 0 016.464 6.295l14.85 49.249z" fill="#FFC9D2"/><path d="M61.51 130.779c1.678 5.564-2.094 11.289-7.87 11.942l-71.515 8.088a9.312 9.312 0 01-8.494-3.662l-56.257-74.92c-4.079-5.432-.888-13.251 5.827-14.278a8.987 8.987 0 002.161-.615l16.226-6.91a9.312 9.312 0 016.099-.416l92.508 25.23a9.313 9.313 0 016.466 6.296l14.85 49.245z" fill="url(#paint0_linear)"/><defs><linearGradient id="paint0_linear" x1="95.5" y1="95" x2="-61.5" y2="102" gradientUnits="userSpaceOnUse"><stop stop-color="#EC405D"/><stop offset="1" stop-color="#C1223D"/></linearGradient></defs></svg>