<svg width="79" height="109" fill="none" xmlns="http://www.w3.org/2000/svg"><path d="M73.282 78.23c-1.424-7.134-8.115-8.348-8.136-8.358-.072-.02.614.151-16.32-4.046v-.575h12.465c2.57 0 4.66-2.09 4.66-4.66V36.819c.21-.884.21-1.803 0-2.688v-8.677a1.583 1.583 0 10-3.165 0v4.543a8.217 8.217 0 00-2.819-1.034 4.128 4.128 0 00-3.478-3.182c-1.811-.238-3.184-1.293-4.08-3.137a2.694 2.694 0 00-2.196-1.517 2.687 2.687 0 00-2.43 1.094C45.064 25.923 37.5 34.228 24.44 34.227c-.994 0-1.668-.047-1.902-.057a4.186 4.186 0 00-4.43 4.178v3.636a21.469 21.469 0 006.616 15.46 21.196 21.196 0 004.572 3.327v1.315H16.887c-.824 0-1.494-.67-1.494-1.494V25.027c0-11.53 9.4-21.031 20.757-21.031h.11c4.068.022 8.766 1.178 11.967 2.943 2.03 1.12 3.282.23 5.286.23 4.89 0 8.809 5.029 9.278 9.551.003.066.01.332.011 1.348.001 1.528 1.727 1.645 1.584 1.581.875 0 1.582-.71 1.582-1.584 0-.28.002-1.383-.025-1.639-.636-6.295-6.006-12.422-12.43-12.422-2.509 0-2.9.636-3.756.164C46.127 2.165 40.835.855 36.277.83c-13.14-.085-24.05 10.861-24.05 24.195v35.566c0 2.57 2.09 4.66 4.66 4.66h12.408v.574l-16.255 4.03-.064.017-1.188.35c-.036.011-.07.023-.105.036-2.12.79-5.827 2.878-6.844 7.972C.022 102.43.224 101.396.213 101.48c-.58 4.104 1.474 7.387 6.416 7.387h17.116a1.583 1.583 0 000-3.166H17.79V90.772a1.583 1.583 0 10-3.165 0V105.7H6.629c-2.102 0-3.323-.676-3.343-2.885-.009-1.077-.051-.027 4.657-23.966.71-3.55 3.287-5.032 4.797-5.607l1.098-.323 9.335-2.314c10.384 12.233 9.77 11.585 10.37 12.17 3.465 3.381 8.41 3.143 11.666-.68l9.775-11.481 9.3 2.304c.268.124 4.897.938 5.894 5.93 4.668 23.732 4.667 22.884 4.658 23.966-.016 2.163-1.186 2.887-3.344 2.887h-7.937v-14.93a1.582 1.582 0 10-3.166 0V105.7H31.132a1.583 1.583 0 000 3.166h40.36c3.91 0 6.474-2.152 6.51-6.027.013-1.81-.095-.945-4.72-24.61zM60.071 32.226c1.322.394 2.34 1.265 2.715 2.34v1.814c-.374 1.076-1.394 1.947-2.715 2.34v-6.494zm0 10.033v-.292a8.2 8.2 0 002.715-1.016v19.64c0 .824-.67 1.494-1.494 1.494H48.826v-1.223A20.954 20.954 0 0060.071 42.26zM26.909 55.155a18.29 18.29 0 01-5.636-13.171c.094-3.446-.228-3.864.322-4.382a.999.999 0 01.751-.273c11.35.683 21.11-4.306 27.555-12.66 1.738 3.052 4.286 4.002 6.175 4.25a.951.951 0 01.83.938V42.26c0 15.749-18.855 23.53-29.997 12.895zm15.89 24.888c-2.206 2.59-5.293 2.583-7.493-.013l-3.303-3.898h14.125l-3.33 3.91zm6.024-7.077H29.322l-2.72-3.21 4.657-1.155a1.6 1.6 0 001.202-1.552v-4.897a20.965 20.965 0 0013.2.045c.03 5.06-.068 4.943.088 5.39.172.493.584.882 1.113 1.013l4.689 1.163-2.728 3.203z" fill="#EC405D"/></svg>