<svg width="90" height="91" fill="none" xmlns="http://www.w3.org/2000/svg"><path d="M12.631 73.844l8.463 4.23V88.59c0 .97.787 1.758 1.758 1.758h18.632c.971 0 1.758-.787 1.758-1.758V64.587c0-5.386-4.04-9.852-9.385-10.388-.02-.005-7.435-1.163-10.875-4.603l-3.948-3.946a6.984 6.984 0 00-4.971-2.06V29.527a7.04 7.04 0 00-7.032-7.03A7.04 7.04 0 000 29.526v23.879c0 8.65 4.886 16.565 12.631 20.438zM3.516 29.527a3.52 3.52 0 013.515-3.515 3.52 3.52 0 013.516 3.515v15.005a7.045 7.045 0 00-3.516 6.09c0 1.876.732 3.642 2.06 4.97l9.002 9.004a1.758 1.758 0 102.486-2.486l-9.002-9.004a3.492 3.492 0 01-1.03-2.485 3.52 3.52 0 012.343-3.315l.002-.001a3.511 3.511 0 013.656.831l3.948 3.946c4.076 4.076 12.98 5.61 12.998 5.614a6.903 6.903 0 016.233 6.89v22.246H24.609v-9.844c0-.666-.376-1.274-.971-1.572L14.204 70.7C7.61 67.403 3.516 60.776 3.516 53.406V29.527z" fill="#EC405D"/><path d="M23.906 43.59h42.188c.97 0 1.758-.787 1.758-1.758V2.105c0-.97-.788-1.757-1.758-1.757H23.906c-.97 0-1.758.787-1.758 1.757v39.727c0 .97.788 1.758 1.758 1.758zm15.82-39.727h10.547v9.474l-4.566-2.26a1.757 1.757 0 00-1.572.007l-4.408 2.227V3.863zm-14.062 0h10.547v12.305a1.758 1.758 0 002.55 1.569l6.175-3.12 6.316 3.127a1.757 1.757 0 002.537-1.576V3.863h10.547v36.211H25.664V3.864z" fill="#EC405D"/><path d="M59.063 31.285H48.516a1.758 1.758 0 000 3.516h10.547a1.758 1.758 0 000-3.516zm21.621 40.078a1.758 1.758 0 100-3.515 1.758 1.758 0 000 3.515z" fill="#EC405D"/><path d="M82.969 22.496a7.04 7.04 0 00-7.031 7.031V43.59a6.984 6.984 0 00-4.971 2.06l-3.949 3.946c-2.162 2.162-7.64 4.278-10.745 4.59l-.117.012a10.408 10.408 0 00-9.398 10.389V88.59c0 .97.787 1.758 1.758 1.758h18.632c.971 0 1.758-.787 1.758-1.758V78.075l5.754-2.876a1.758 1.758 0 00-1.572-3.145l-6.726 3.362a1.759 1.759 0 00-.971 1.572v9.844H50.273V64.587a6.906 6.906 0 016.246-6.892l.117-.013c3.813-.382 10.126-2.858 12.868-5.6l3.948-3.946a3.512 3.512 0 013.656-.831h.002c2.42.856 3.15 3.965 1.313 5.802L69.42 62.11a1.758 1.758 0 002.486 2.486l9.002-9.004c3.25-3.25 2.573-8.73-1.456-11.06V29.527a3.52 3.52 0 013.516-3.515 3.52 3.52 0 013.516 3.515v23.879c0 3.216-.812 6.409-2.348 9.233a1.758 1.758 0 103.089 1.68A22.915 22.915 0 0090 53.405V29.527a7.04 7.04 0 00-7.031-7.03z" fill="#EC405D"/></svg>