<svg width="110" height="97" fill="none" xmlns="http://www.w3.org/2000/svg"><path d="M67.689 71.166h-6.03a1.611 1.611 0 000 3.223h6.03a1.611 1.611 0 100-3.223z" fill="#EC405D"/><path d="M103.179 53.915l-8.774-3.385-4.474-4.473a1.604 1.604 0 00-1.036-.467v-3.56a16.617 16.617 0 004.215-8.303c.376.018.756-.013 1.13-.09 2.145-.438 3.7-2.428 3.7-4.729v-1.175c0-1.331-.54-2.553-1.418-3.427 1.422-7.739.25-14.046-3.405-18.267C89.581 1.957 83.885.005 76.644.397c-6.69.361-11.008 3.44-12.376 4.565a8.49 8.49 0 00-3.316 1.127c-1.79 1.074-3.922 3.33-3.922 7.977 0 4.055.648 7.44 1.117 9.36-1.573.767-2.625 2.427-2.625 4.325v1.157c0 2.301 1.556 4.29 3.7 4.73a4.68 4.68 0 001.13.09 16.62 16.62 0 004.215 8.302v3.56c-.378.024-.748.18-1.035.466l-4.474 4.474-8.775 3.385c-.759.292-1.484.672-2.154 1.128a1.611 1.611 0 001.81 2.665 7.456 7.456 0 011.504-.787l8.143-3.14 6.227 9.339a4.61 4.61 0 003.854 2.06 4.6 4.6 0 002.268-.6l-1.336 30.308a1.611 1.611 0 103.22.142l1.24-28.133h3.345l1.24 28.133a1.611 1.611 0 103.22-.142L81.526 64.58a4.599 4.599 0 002.73.577 4.61 4.61 0 003.393-2.037l6.226-9.34 8.143 3.141a7.42 7.42 0 012.899 2.02l-5.572 5.571a10.587 10.587 0 00-3.12 7.536v22.911a1.611 1.611 0 103.222 0V72.048c0-1.986.773-3.853 2.177-5.257l4.889-4.89c.197.721.289 1.479.258 2.253l-1.248 30.74a1.611 1.611 0 103.22.13l1.248-30.74a10.653 10.653 0 00-6.813-10.37zM63.507 33.063c-.285-1.547-1.717-2.672-3.264-2.557-.122.009-.248 0-.375-.026-.64-.13-1.123-.807-1.123-1.572v-1.157c0-.748.5-1.42 1.137-1.533a1.4 1.4 0 011.379.528c.296.386.69.662 1.14.798.66.199 1.388.082 1.948-.313a11.697 11.697 0 002.642-2.583 1.611 1.611 0 10-2.586-1.923c-.372.5-.792.954-1.255 1.356a4.61 4.61 0 00-1.747-.933 37.06 37.06 0 01-1.15-9.082c0-2.468.76-4.202 2.26-5.154 1.171-.743 2.41-.772 2.41-.772.411 0 .812-.163 1.111-.446.04-.037 4-3.713 10.784-4.08 6.21-.335 11.003 1.233 13.862 4.535 2.882 3.328 3.842 8.437 2.801 14.832a6.981 6.981 0 00-1.374.096l-1.514-3.636a1.613 1.613 0 00-1.895-.94c-.15.04-15.03 3.812-21.27-3.956a1.611 1.611 0 10-2.513 2.018c6.372 7.933 19.014 6.207 23.223 5.365l1.17 2.812a2.649 2.649 0 003.061 1.569c.521-.123 1.019-.126 1.206-.089.651.13 1.143.78 1.143 1.513v1.175c0 .765-.484 1.441-1.124 1.572a1.367 1.367 0 01-.375.026c-1.546-.113-2.979 1.01-3.263 2.557A13.442 13.442 0 0176.73 44.077a13.443 13.443 0 01-13.224-11.014zm7.148 28.483a1.384 1.384 0 01-1.131.405 1.384 1.384 0 01-1.03-.618l-6.272-9.41 2.523-2.522 9.629 8.426-3.72 3.72zm4.546 2.129l.097-2.215 1.433-1.432 1.433 1.432.097 2.215h-3.06zm1.53-8.067l-8.941-7.824V44.7c2.6 1.653 5.675 2.6 8.941 2.6 3.266 0 6.342-.947 8.942-2.6v3.084l-8.942 7.824zm8.237 5.725c-.32.48-.782.593-1.03.618a1.383 1.383 0 01-1.13-.405l-3.72-3.719 9.63-8.426 2.523 2.523-6.273 9.409z" fill="#EC405D"/><path d="M51.1 62.36l-7.868-3.434-4.301-4.301a1.602 1.602 0 00-1.036-.467v-2.535a16.643 16.643 0 007.23-10.835c.424.019.851-.022 1.272-.121 2.062-.488 3.558-2.464 3.558-4.699v-1.174c0-1.633-.81-3.101-2.064-3.963a18.22 18.22 0 00.557-4.464c0-6.676-3.609-12.556-9.048-15.932C39.342 4.864 34.586.348 28.746.348S18.15 4.864 18.092 10.435c-5.439 3.376-9.047 9.257-9.047 15.932 0 1.501.187 2.993.554 4.451-1.255.857-2.062 2.333-2.062 3.993v1.157c0 2.235 1.497 4.21 3.558 4.699.422.1.849.14 1.272.12a16.643 16.643 0 007.23 10.836v2.535a1.602 1.602 0 00-1.035.467l-4.301 4.3-7.868 3.435C2.39 64.108-.176 68.214.009 72.578l.952 22.45a1.612 1.612 0 003.22-.137l-.952-22.45a7.42 7.42 0 011.022-4.058l4.229 5.075a8.958 8.958 0 012.072 5.724V94.96a1.611 1.611 0 003.223 0V79.182c0-2.84-1.001-5.605-2.82-7.787L6.46 66a7.307 7.307 0 011.222-.686l6.857-2.994 4.846 7.866a3.115 3.115 0 002.657 1.483c.736 0 1.454-.261 2.023-.747l3.07-2.62V94.96a1.611 1.611 0 103.223 0V68.303l3.07 2.62a3.115 3.115 0 002.51.708 3.115 3.115 0 002.17-1.445l4.846-7.865 6.857 2.993c.434.19.84.423 1.223.686l-4.496 5.395a12.187 12.187 0 00-2.82 7.788V94.96a1.611 1.611 0 103.223 0V79.183a8.96 8.96 0 012.072-5.725l4.23-5.075a7.418 7.418 0 011.021 4.059l-.951 22.45a1.612 1.612 0 003.22.136l.951-22.45c.185-4.364-2.38-8.47-6.384-10.218zM28.747 3.57c3.428 0 6.32 2.187 7.175 5.15a20.288 20.288 0 00-7.175-1.3c-2.531 0-4.951.46-7.176 1.3.855-2.963 3.747-5.15 7.176-5.15zM15.522 40.124c-.284-1.548-1.72-2.672-3.263-2.558a1.396 1.396 0 01-.421-.035c-.614-.146-1.078-.818-1.078-1.563v-1.157c0-.747.5-1.42 1.137-1.532a1.4 1.4 0 011.379.527c.296.386.69.662 1.141.798.66.2 1.388.083 1.947-.313a11.69 11.69 0 002.608-2.537 1.611 1.611 0 10-2.577-1.935 8.548 8.548 0 01-1.23 1.322 4.616 4.616 0 00-2.43-1.07 15.009 15.009 0 01-.468-3.704c0-8.67 7.393-15.725 16.48-15.725 9.086 0 16.478 7.054 16.478 15.725a15 15 0 01-.464 3.697 7.382 7.382 0 00-1.254.206l-1.212-.996a3.094 3.094 0 00-2.15-.705c-2.368.14-14.498.46-20.721-6.987a1.611 1.611 0 00-2.473 2.066c3.07 3.673 7.57 6.157 13.38 7.383 4.447.938 8.4.847 9.95.758l1.89 1.554a1.61 1.61 0 001.832.15c.273-.15 1.188-.292 1.588-.212.651.13 1.142.78 1.142 1.513v1.174c0 .746-.463 1.417-1.078 1.563a1.379 1.379 0 01-.42.035c-1.544-.112-2.98 1.01-3.264 2.557a13.442 13.442 0 01-13.224 11.015 13.443 13.443 0 01-13.225-11.014zm6.543 28.268l-4.846-7.866 2.482-2.483 6.673 6.672-4.309 3.677zm6.682-5.862l-5.927-5.926V53.27c1.85.705 3.85 1.09 5.927 1.09 2.077 0 4.076-.385 5.926-1.09v3.334l-5.926 5.926zm6.681 5.862l-4.309-3.677 6.673-6.672 2.483 2.483-4.847 7.866z" fill="#EC405D"/><path d="M22.711 78.273H18.19a1.611 1.611 0 000 3.223h4.522a1.611 1.611 0 100-3.223z" fill="#EC405D"/></svg>