<svg width="34" height="32" fill="none" xmlns="http://www.w3.org/2000/svg"><path d="M29.772 0a4.254 4.254 0 00-3.166 1.407L4.336 26.442 0 30.72 1.297 32H4.43l2.77-2.733L32.577 7.293A4.15 4.15 0 0034 4.172C34 1.872 32.103 0 29.772 0zM16.613 14.581l.963-1.08 2.741 2.704-1.095.95-2.609-2.574zM18.244 18l-11.46 9.923-1.086-1.072 10.058-11.307L18.244 18zm.188-5.464l.962-1.081 2.996 2.955-1.096.95-2.862-2.824zm1.82-2.045l.962-1.081 3.249 3.206-1.096.949-3.115-3.074zM3.892 30.72H1.835l2.974-2.935L5.84 28.8l-1.947 1.92zM31.718 6.333l-6.279 5.437-3.368-3.324 5.508-6.192a2.945 2.945 0 012.193-.974c1.617 0 2.93 1.297 2.93 2.892 0 .826-.359 1.615-.984 2.16z" fill="#fff"/></svg>