<svg width="29" height="34" fill="none" xmlns="http://www.w3.org/2000/svg"><path d="M24.007 24.574h-1.155a9.698 9.698 0 00-3.418-6.944l-1.943-1.65 2.69-2.284a7.587 7.587 0 002.682-5.794V.622A.463.463 0 0022.4.16H7.066a.462.462 0 00-.463.463v7.279a7.587 7.587 0 002.682 5.794l2.69 2.284-1.944 1.65a9.699 9.699 0 00-3.417 6.944H5.46a4.713 4.713 0 104.712 4.713v-4.249a6.137 6.137 0 012.168-4.686l2.393-2.032 2.392 2.03a6.137 6.137 0 012.168 4.687v4.25a4.713 4.713 0 104.714-4.713zM11.595 10.976a4.026 4.026 0 01-1.423-3.074v-.934h9.121v.934a4.025 4.025 0 01-1.422 3.074l-3.138 2.663-3.138-2.663zm-1.38-4.933a2.483 2.483 0 012.436-2.017h4.164a2.483 2.483 0 012.435 2.017h-9.034zm11.723 1.859a6.665 6.665 0 01-2.356 5.09l-2.806 2.381-.156-.132-1.173-.995 3.022-2.564a4.948 4.948 0 001.749-3.78V1.084h1.718l.002 6.817zm-2.644-3.723a3.391 3.391 0 00-2.48-1.078h-4.163a3.392 3.392 0 00-2.479 1.078V1.085h9.121V4.18zm-7.552 15.466a7.062 7.062 0 00-2.495 5.393v4.25A3.787 3.787 0 115.46 25.5h1.606a.462.462 0 00.463-.463 8.775 8.775 0 013.101-6.702l2.06-1.748 1.33 1.128-2.278 1.93zm12.264 13.43a3.791 3.791 0 01-3.787-3.787v-4.25a7.063 7.063 0 00-2.495-5.393l-2.691-2.283-1.603-1.36-3.546-3.01a6.665 6.665 0 01-2.356-5.09V1.085h1.719v6.817a4.95 4.95 0 001.749 3.78l3.437 2.918.173.147 4.23 3.588a8.776 8.776 0 013.102 6.703.463.463 0 00.462.462h1.606a3.788 3.788 0 010 7.574v.001z" fill="#fff"/><path d="M24.006 26.69a2.597 2.597 0 100 5.194 2.597 2.597 0 000-5.195zm0 4.27a1.674 1.674 0 01-.64-3.218 1.673 1.673 0 11.64 3.218zM5.46 26.69a2.597 2.597 0 100 5.194 2.597 2.597 0 000-5.195zm0 4.27a1.672 1.672 0 110-3.347 1.672 1.672 0 010 3.347z" fill="#fff"/></svg>