<svg width="32" height="31" fill="none" xmlns="http://www.w3.org/2000/svg"><path d="M23.2.072c-2.784 0-5.456 1.338-7.2 3.451C14.256 1.41 11.584.073 8.8.073 3.872.072 0 4.067 0 9.152c0 6.242 5.44 11.327 13.68 19.055L16 30.37l2.32-2.18C26.56 20.481 32 15.395 32 9.153c0-5.085-3.872-9.08-8.8-9.08zm-7.04 25.675l-.16.166-.16-.166C8.224 18.631 3.2 13.925 3.2 9.153c0-3.302 2.4-5.778 5.6-5.778 2.464 0 4.864 1.634 5.712 3.896h2.992c.832-2.262 3.232-3.896 5.696-3.896 3.2 0 5.6 2.476 5.6 5.778 0 4.772-5.024 9.478-12.64 16.594z" fill="#EC405D"/></svg>