<svg width="31" height="31" fill="none" xmlns="http://www.w3.org/2000/svg"><path d="M18.467 15.5a2.967 2.967 0 11-5.934 0 2.967 2.967 0 015.934 0z" fill="#fff"/><path d="M22.438 10.251a2.76 2.76 0 00-.665-1.023 2.756 2.756 0 00-1.024-.666c-.313-.122-.785-.267-1.652-.306-.94-.043-1.22-.052-3.597-.052s-2.658.009-3.597.052c-.867.04-1.339.184-1.652.306-.387.143-.737.37-1.024.666a2.76 2.76 0 00-.666 1.023c-.121.314-.266.785-.306 1.653-.043.939-.052 1.22-.052 3.597 0 2.376.01 2.658.052 3.596.04.868.185 1.34.306 1.653.143.387.37.736.666 1.023.287.296.637.523 1.024.666.313.122.785.267 1.652.306.939.043 1.22.052 3.597.052s2.658-.009 3.596-.052c.868-.039 1.34-.184 1.653-.306.776-.3 1.39-.913 1.69-1.69.121-.313.266-.784.306-1.652.043-.938.052-1.22.052-3.596 0-2.377-.01-2.658-.052-3.597-.04-.868-.185-1.34-.307-1.653zm-6.938 9.82a4.57 4.57 0 110-9.14 4.57 4.57 0 010 9.14zm4.751-8.254a1.068 1.068 0 110-2.136 1.068 1.068 0 010 2.137z" fill="#fff"/><path d="M15.5 0C6.94 0 0 6.941 0 15.5 0 24.06 6.94 31 15.5 31 24.06 31 31 24.06 31 15.5 31 6.942 24.06 0 15.5 0zm8.847 19.17c-.043.947-.194 1.594-.414 2.16a4.55 4.55 0 01-2.603 2.604c-.566.22-1.213.37-2.16.413-.95.043-1.253.054-3.67.054s-2.72-.01-3.67-.054c-.947-.043-1.594-.194-2.16-.414a4.36 4.36 0 01-1.576-1.026 4.362 4.362 0 01-1.027-1.576c-.22-.566-.37-1.214-.413-2.16-.044-.95-.054-1.253-.054-3.67 0-2.418.01-2.72.053-3.67.043-.947.194-1.594.414-2.16a4.36 4.36 0 011.027-1.577A4.36 4.36 0 019.67 7.067c.566-.22 1.213-.37 2.16-.413.95-.043 1.253-.054 3.67-.054s2.72.01 3.67.054c.947.043 1.594.193 2.16.413a4.363 4.363 0 011.577 1.027 4.36 4.36 0 011.026 1.576c.22.567.37 1.214.414 2.161.043.95.053 1.252.053 3.67 0 2.417-.01 2.72-.053 3.669z" fill="#fff"/></svg>