<svg width="24" height="24" fill="none" xmlns="http://www.w3.org/2000/svg"><mask id="a" fill="#fff"><path d="M18.5 18.5L24 11v13H12l6.5-5.5z"/></mask><path d="M18.5 18.5l7.751 9.161 1.085-.918.84-1.146L18.5 18.5zM24 11h12v-36.655L14.323 3.905 24 11zm0 13v12h12V24H24zm-12 0l-7.751-9.16L-20.76 36H12V24zm16.177 1.597l5.5-7.5L14.323 3.904l-5.5 7.5 19.354 14.193zM12 11v13h24V11H12zm12 1H12v24h12V12zm-4.249 21.161l6.5-5.5L10.75 9.34l-6.5 5.5 15.5 18.32z" fill="#fff" mask="url(#a)"/><circle cx="12" cy="12.001" r="10" stroke="#fff" stroke-width="4"/><circle cx="12" cy="12.001" r="3" stroke="#fff" stroke-width="4"/></svg>