<svg width="106" height="106" fill="none" xmlns="http://www.w3.org/2000/svg"><path d="M105.127 13.21L92.613 1.276c-.476-.456-.968-.928-1.887-.928H40.599a2.658 2.658 0 00-2.655 2.655v8.153l-17.667 3.029a2.617 2.617 0 00-2.123 3.018l.897 5.228C13.308 24.363 7.413 26.355 1.72 28.4a2.629 2.629 0 00-1.57 3.34l11.321 31.472a1.553 1.553 0 102.922-1.051L3.24 31.154c5.362-1.92 10.915-3.799 16.342-5.625l5.336 31.105 6.139 35.823a2.63 2.63 0 003.018 2.129l16.628-2.854 12.993-2.227-19.541 7.024-15.41 5.541-11.969-33.289a1.552 1.552 0 10-2.922 1.051l12.138 33.761a2.623 2.623 0 002.457 1.722c.294 0 .592-.051.883-.157l15.873-5.707 36.043-12.954 6.885-1.18h15.211a2.661 2.661 0 002.655-2.662V14.96c0-.929-.504-1.403-.872-1.75zm-4.114.367h-7.77l-.192.001c-.372.003-1.243.01-1.464-.21-.051-.05-.11-.22-.11-.535l-.019-8.367 9.555 9.111zm1.881 68.633H41.05V51.95a1.553 1.553 0 00-3.106 0v30.705a2.661 2.661 0 002.655 2.66h29.153l-19.574 3.356-16.145 2.77-6.055-35.332-6.68-38.949 16.646-2.853v30.438a1.553 1.553 0 103.105 0V3.453H88.35l.02 9.384c0 1.137.347 2.057 1.029 2.735 1.048 1.04 2.53 1.113 3.45 1.113l.224-.001h9.821V82.21z" fill="#EC405D"/><path d="M48.535 24.457c0 .857.695 1.553 1.552 1.553h44.395a1.553 1.553 0 000-3.106H50.087c-.857 0-1.553.695-1.553 1.553zm45.947 9.478H50.087a1.553 1.553 0 000 3.106h44.395a1.553 1.553 0 000-3.105zm0 11.032H50.087a1.553 1.553 0 000 3.105h44.395a1.553 1.553 0 000-3.105zm0 11.031H50.087a1.553 1.553 0 000 3.105h44.395a1.553 1.553 0 000-3.105zm0 11.032H50.087a1.553 1.553 0 000 3.105h44.395a1.553 1.553 0 000-3.106z" fill="#EC405D"/></svg>