<svg width="35" height="40" fill="none" xmlns="http://www.w3.org/2000/svg"><path d="M11.116 11.58V2.108A2.11 2.11 0 009.008 0H3.64a2.11 2.11 0 00-2.108 2.108v9.472A2.112 2.112 0 000 13.608a2.11 2.11 0 002.108 2.108h2.108v15.102c0 .025.002.049.005.072l-1.344 6.758a1.337 1.337 0 001.315 1.603h4.265a1.34 1.34 0 001.316-1.603L8.428 30.89a.586.586 0 00.005-.072V23.05a.575.575 0 10-1.15 0v6.925a2.864 2.864 0 00-1.917 0V15.716h1.917v5.11a.575.575 0 101.15 0v-5.11h2.108a2.11 2.11 0 002.108-2.108c0-.963-.65-1.777-1.533-2.028zM7.334 31.286l1.31 6.586a.189.189 0 01-.039.16.189.189 0 01-.148.07H4.192a.19.19 0 01-.148-.07.189.189 0 01-.04-.16l1.311-6.586a1.715 1.715 0 012.02 0zM3.641 1.15h5.367a.96.96 0 01.958.958V11.5H2.683V2.11a.96.96 0 01.958-.96zm6.9 13.416H2.108a.96.96 0 010-1.917h8.433a.96.96 0 010 1.917zm20.104.339A2.122 2.122 0 0028.85 13.9h-.485v-1.33a2.112 2.112 0 001.533-2.028 2.11 2.11 0 00-2.108-2.108h-8.433a2.11 2.11 0 00-2.108 2.108c0 .963.65 1.777 1.533 2.028v1.33h-.484c-.727 0-1.415.385-1.796 1.004a23.375 23.375 0 00-3.47 12.257v7.68a4.413 4.413 0 004.409 4.409h12.266a4.413 4.413 0 004.408-4.408v-7.68c0-4.332-1.2-8.57-3.47-12.258zm-10.713-2.256h4.086a.575.575 0 100-1.15h-4.66a.96.96 0 010-1.916h8.432a.96.96 0 010 1.916h-1.625a.575.575 0 100 1.15h1.05v1.252h-7.283V12.65zm13.033 22.194a3.262 3.262 0 01-3.258 3.258H17.44a3.262 3.262 0 01-3.258-3.258v-7.68c0-4.119 1.14-8.149 3.298-11.656a.965.965 0 01.817-.456H28.85c.33 0 .643.175.816.456a22.225 22.225 0 013.299 11.655v7.68z" fill="#fff"/><path d="M23.574 19.102c-4.122 0-7.475 3.353-7.475 7.474 0 4.122 3.353 7.475 7.475 7.475 4.121 0 7.474-3.353 7.474-7.475 0-4.121-3.353-7.474-7.474-7.474zm0 13.799a6.332 6.332 0 01-6.325-6.325 6.332 6.332 0 016.325-6.325 6.332 6.332 0 016.324 6.325 6.332 6.332 0 01-6.324 6.325z" fill="#fff"/></svg>