<svg width="96" height="97" fill="none" xmlns="http://www.w3.org/2000/svg"><path d="M63 63.348a1.876 1.876 0 10.001 3.751A1.876 1.876 0 0063 63.348zm-25.5-1.875a1.877 1.877 0 01-1.875-1.875c0-1.035.84-1.875 1.875-1.875.664 0 1.365.339 2.028.98a1.875 1.875 0 102.608-2.695c-.952-.921-1.904-1.442-2.76-1.726v-2.184a1.875 1.875 0 10-3.75 0v2.197a5.634 5.634 0 00-3.75 5.303 5.631 5.631 0 005.624 5.625c1.033 0 1.875.84 1.875 1.875a1.877 1.877 0 01-1.875 1.875c-.801 0-1.666-.504-2.435-1.419a1.874 1.874 0 10-2.87 2.413c1.002 1.193 2.18 2.023 3.43 2.442v2.189a1.875 1.875 0 103.75 0V72.4a5.635 5.635 0 003.75-5.302 5.631 5.631 0 00-5.625-5.625zm-15-30c1.036 0 1.875-.84 1.875-1.875v-7.5a1.875 1.875 0 10-3.75 0v7.5c0 1.035.84 1.875 1.875 1.875z" fill="#EC405D"/><path d="M88.5 44.598v-15c0-5.17-4.206-9.375-9.375-9.375h-10.5V5.973A5.631 5.631 0 0063 .348H28.125A5.631 5.631 0 0022.5 5.973v6.75h-5.625a5.631 5.631 0 00-5.625 5.625v1.875H9.375C4.205 20.223 0 24.428 0 29.598v57.375c0 5.17 4.206 9.375 9.375 9.375H66.75c4.527 0 8.315-3.226 9.186-7.5h3.189c5.17 0 9.375-4.206 9.375-9.375v-4.875h1.875A5.631 5.631 0 0096 68.973V52.098c0-4.136-3.365-7.5-7.5-7.5zm3.75 7.5a3.75 3.75 0 01-3.75 3.75v-7.5a3.754 3.754 0 013.75 3.75zM79.125 23.973a5.631 5.631 0 015.625 5.625v26.25h-8.625v-11.25c0-4.527-3.226-8.316-7.5-9.186v-11.44h10.5zm-52.875-18c0-1.035.84-1.875 1.875-1.875H63c1.034 0 1.875.84 1.875 1.875v29.25H56.25V18.348a5.631 5.631 0 00-5.625-5.625H26.25v-6.75zM45 35.223v-18.75h5.625c1.034 0 1.875.84 1.875 1.875v16.875H45zm-11.25 0v-18.75h7.5v18.75h-7.5zM15 18.348c0-1.034.84-1.875 1.875-1.875H30v18.75H15V18.348zm-5.625 5.625h1.875v11.25H9.776c-3.099 0-6.026-2.245-6.026-5.625a5.631 5.631 0 015.625-5.625zM66.75 92.598H9.375a5.631 5.631 0 01-5.625-5.625V36.982a10.098 10.098 0 006.026 1.99H66.75a5.631 5.631 0 015.625 5.626v11.25H59.25a5.631 5.631 0 00-5.625 5.625v7.5a5.631 5.631 0 005.625 5.625h13.125v12.375a5.631 5.631 0 01-5.625 5.625zm18-13.125a5.631 5.631 0 01-5.625 5.625h-3v-10.5h8.625v4.875zm5.625-8.625H59.25a1.877 1.877 0 01-1.875-1.875v-7.5c0-1.035.84-1.875 1.875-1.875H88.5a7.45 7.45 0 003.75-1.005v10.38c0 1.034-.84 1.875-1.875 1.875z" fill="#EC405D"/><path d="M79.125 63.348H70.5a1.875 1.875 0 100 3.75h8.625a1.875 1.875 0 100-3.75z" fill="#EC405D"/></svg>