<svg width="94" height="95" fill="none" xmlns="http://www.w3.org/2000/svg"><path d="M92.773 1.572l-.014-.012A4.21 4.21 0 0089.817.348h-.006a4.18 4.18 0 00-2.605.914 1422.142 1422.142 0 00-36.968 30.57L23.052 4.644a6.893 6.893 0 00-9.737 0L.403 17.557a1.377 1.377 0 001.948 1.948l9.017-9.017 1.97 1.97-9.017 9.017a1.377 1.377 0 001.947 1.947l9.018-9.017 1.97 1.971-9.017 9.017a1.377 1.377 0 001.947 1.947l9.017-9.017 1.97 1.97-9.016 9.018a1.377 1.377 0 001.947 1.947l9.017-9.017 1.97 1.97-9.016 9.018a1.377 1.377 0 101.947 1.947l9.017-9.017 1.97 1.97-9.017 9.018a1.377 1.377 0 101.947 1.947l9.017-9.017 1.971 1.97-9.017 9.018a1.377 1.377 0 001.947 1.947l9.017-9.017 1.971 1.97-9.017 9.018a1.377 1.377 0 001.947 1.947l9.017-9.017 2.04 2.04A1429.159 1429.159 0 0028.24 51.047c-.002 0-.002 0-.002.002-1.235 1.099-2.582 2.364-3.912 3.563-.814.59-.66 1.625-.255 2.03l.002.001a9.075 9.075 0 012.058 5.772c0 2.477-.953 4.794-2.684 6.523l-4.153 4.153C13.305 79.22 2.76 75.037 2.753 66.36c.005-5.269 4.26-9.62 9.636-9.624a9.62 9.62 0 017.5 3.573 1.38 1.38 0 002.013.136l.013-.012c.645-.58.6-1.624-.12-2.14a12.373 12.373 0 00-9.397-4.31h-.018C5.495 53.981-.008 59.586 0 66.358a12.388 12.388 0 007.726 11.484 12.434 12.434 0 008.45.317c-2.583 8.037 3.43 16.188 11.787 16.188h.014c6.83 0 12.395-5.528 12.387-12.385a12.296 12.296 0 00-3.53-8.662l2.811-3.197c4.961-5.52 9.868-11.065 14.715-16.624l2.075 2.075-9.017 9.017a1.377 1.377 0 101.948 1.947l9.017-9.017 1.97 1.97-9.017 9.018a1.377 1.377 0 101.948 1.947L62.3 61.42l1.97 1.97-9.017 9.018a1.377 1.377 0 101.948 1.947l9.017-9.017 1.97 1.97-9.017 9.017a1.377 1.377 0 101.948 1.948l9.017-9.017 1.97 1.97-9.017 9.017a1.377 1.377 0 101.948 1.948l9.017-9.017 1.97 1.97-9.017 9.017a1.377 1.377 0 101.948 1.947l9.016-9.017 1.97 1.97-9.016 9.018a1.377 1.377 0 101.947 1.947l9.017-9.017 1.97 1.97-9.016 9.017a1.377 1.377 0 101.947 1.948l9.99-9.99.001-.001.001-.002 2.92-2.92a6.84 6.84 0 002.016-4.868 6.84 6.84 0 00-2.016-4.868L62.487 44.081A1392.003 1392.003 0 0093.085 7.139a4.177 4.177 0 00-.312-5.567zM13.315 8.54l1.947-1.947a4.136 4.136 0 015.842 0l27.038 27.038a1424.647 1424.647 0 00-5.227 4.51l-29.6-29.6zm74.44 64.704c.78.78 1.21 1.817 1.21 2.92 0 1.104-.43 2.141-1.21 2.921l-1.947 1.948-29.635-29.635c1.51-1.74 3.017-3.48 4.515-5.22l27.067 27.066zm-49.392-5.836c-.667-.51-2.447-1.395-2.743-3.908a1.375 1.375 0 00-1.364-1.215c-.832 0-1.465.722-1.371 1.539h.002c.262 2.245 1.481 4.23 3.343 5.443.097.064.195.13.296.204-.956 1.09-1.744 2.007-2.648 3.005a1.38 1.38 0 00.154 1.994c2.311 1.886 3.576 4.601 3.579 7.493a9.625 9.625 0 01-9.639 9.63c-5.297-.006-9.639-4.276-9.639-9.63.007-4.358 2.763-6.692 2.975-6.992l4.085-4.085a11.957 11.957 0 003.491-8.47 11.773 11.773 0 00-1.918-6.48c1.078-.986 2.016-1.86 3.105-2.831l.005-.007C59.931 26.478 88.573 3.595 89.112 3.287c-.37.37-54.094 54.07-54.342 54.35a1.378 1.378 0 002.06 1.828c.165-.188 53.835-53.838 54.229-54.232-.113.198-22.288 28.286-52.696 62.175z" fill="#EC405D"/><path d="M17.261 61.499c-4.343-4.343-11.754-1.214-11.753 4.867 0 1.838.716 3.566 2.017 4.867a6.862 6.862 0 004.868 2.013 6.865 6.865 0 004.868-2.013 6.885 6.885 0 000-9.734zm-1.947 7.787a4.136 4.136 0 01-5.842 0c-2.58-2.58-.773-7.048 2.921-7.048 3.705 0 5.489 4.48 2.921 7.048zm12.652 5.794c-2.832 0-5.264 1.626-6.348 4.243-1.089 2.63-.522 5.507 1.48 7.508 1.33 1.33 3.042 2.026 4.81 2.026.894 0 1.802-.178 2.682-.542 2.628-1.089 4.26-3.523 4.26-6.352a6.892 6.892 0 00-6.884-6.883zm1.57 10.69c-1.232.51-3.059.546-4.491-.886-1.434-1.434-1.396-3.268-.883-4.508.51-1.229 1.776-2.542 3.803-2.542a4.135 4.135 0 014.131 4.13c0 2.024-1.322 3.294-2.56 3.807z" fill="#EC405D"/></svg>