<svg width="29" height="36" fill="none" xmlns="http://www.w3.org/2000/svg"><path d="M26.71 13.397L23.46 11.1a.521.521 0 00-.42-.83h-.399V6.077a.815.815 0 00-.814-.814h-.257v-1.23a.903.903 0 00-.902-.902h-.364V2.78h4.262c.5 0 .907-.407.907-.907C25.473.84 24.633 0 23.6 0h-1.53a.521.521 0 100 1.043h1.53c.412 0 .755.301.82.695h-4.637a.521.521 0 00-.521.521v.873h-.695V1.39c0-.191.156-.347.347-.347h1.072a.521.521 0 100-1.043h-1.072c-.766 0-1.39.624-1.39 1.39v1.742h-.364a.903.903 0 00-.902.902v1.23H16a.815.815 0 00-.814.814v4.19h-.4a.521.521 0 00-.419.83l-3.25 2.3a4.377 4.377 0 00-1.848 3.568v5.804c-.258-.287-.398-.412-.908-.926a.521.521 0 00-.738 0c-.336.38-1.471 1.26-2.312 3.026-1.558-.98-2.93-1.038-3.306-1.133a.522.522 0 00-.604.424c-.052.431-.363 1.444-.16 2.92-.25-.002-.469 0-.719 0a.521.521 0 00-.521.52c.032.414-.171 1.86.634 3.66a.521.521 0 10.952-.425c-.615-1.377-.536-2.638-.543-2.713.1.013 1.71-.134 3.431.923a8.716 8.716 0 002.247 5.475 6.285 6.285 0 01-4.06-2.038.522.522 0 00-.774.7 7.328 7.328 0 005.426 2.41H8.67a7.27 7.27 0 003.012-.65 4.82 4.82 0 002.42.65h9.623a4.839 4.839 0 004.833-4.833V16.966c0-1.417-.69-2.75-1.848-3.569zM17.3 4.175h3.227v1.089H17.3v-1.09zm-1.072 2.132h5.37v3.961h-5.37V6.307zm-5.916 12.605h12.825a.521.521 0 100-1.043H10.312v-.903a3.33 3.33 0 011.406-2.717l4.155-2.938h6.08l4.155 2.938a3.332 3.332 0 011.407 2.717v.903H25.22a.521.521 0 100 1.043h2.294v8.038H14.759c.167-1.4-.122-2.353-.176-2.79a.522.522 0 00-.604-.423c-.368.093-1.747.152-3.306 1.134a8.762 8.762 0 00-.361-.68v-5.28zm-1.05 15.61a8.716 8.716 0 002.247-5.476 6.239 6.239 0 013.275-.923h.157v.157a6.279 6.279 0 01-5.68 6.242zm4.412-7.358a7.257 7.257 0 00-2.19.702 8.76 8.76 0 00-.415-2.01c1.245-.842 2.504-.982 2.577-1.002.01.105.248 1.052.028 2.31zm-5.897-3.999l.215-.215.215.215c2.976 2.976 3.071 7.883 0 10.954l-.215.215-.215-.215a7.745 7.745 0 010-10.954zm-5.439 1.69c.105.028 1.303.14 2.577 1a8.757 8.757 0 00-.415 2.011 7.257 7.257 0 00-2.19-.702c-.219-1.25.019-2.213.028-2.31zm21.387 9.695h-9.623c-.451 0-.894-.08-1.31-.233 3.517-2.409 3.171-6.245 3.191-6.325h11.532v2.768c0 2.09-1.7 3.79-3.79 3.79z" fill="#fff"/><path d="M19.476 8.656H18.35a.521.521 0 100 1.043h1.125a.521.521 0 100-1.043zm-3.769 12.792h6.413a.521.521 0 100-1.043h-6.413a.521.521 0 100 1.043zm0 2.004h6.413a.521.521 0 100-1.043h-6.413a.521.521 0 100 1.043zm0 2.004h6.413a.521.521 0 100-1.043h-6.413a.521.521 0 100 1.043z" fill="#fff"/></svg>