<svg width="97" height="97" fill="none" xmlns="http://www.w3.org/2000/svg"><path d="M95.397 77.155h-8.026c15.921-21.182 11.657-51.26-9.524-67.18A47.978 47.978 0 0048.993.347C22.48.348.988 21.84.988 48.352c0 26.512 21.493 48.005 48.005 48.005h46.404a1.6 1.6 0 001.6-1.6V78.754a1.6 1.6 0 00-1.6-1.6zM65.143 90.13c-.58.224-1.167.438-1.76.64-.138.047-.275.095-.415.14-.616.204-1.238.393-1.864.568-.125.035-.248.072-.373.105-.64.175-1.28.332-1.928.48-.121.028-.24.058-.361.084-.64.14-1.3.262-1.956.372-.125.023-.25.048-.376.07-.64.102-1.28.186-1.936.262-.144.016-.285.04-.429.054-.64.069-1.28.115-1.92.16-.16.01-.307.027-.462.035-.783.038-1.573.056-2.37.056C24.26 93.128 4.217 73.085 4.189 48.352 4.167 23.607 24.209 3.53 48.953 3.51c24.745-.022 44.822 20.02 44.844 44.764a44.804 44.804 0 01-11.465 29.971c-.16.175-.32.346-.48.517-.356.384-.714.764-1.082 1.135-.142.144-.29.283-.435.425a45.74 45.74 0 01-1.192 1.138c-.106.095-.215.186-.32.282a45.27 45.27 0 01-4.197 3.322c-.223.16-.44.32-.665.469-.297.2-.604.388-.907.582-.353.226-.704.453-1.064.669-.253.152-.512.294-.77.442-.424.243-.848.48-1.28.713-.219.117-.441.227-.66.34-.48.246-.972.48-1.463.715-.189.088-.38.172-.568.257a44.72 44.72 0 01-1.616.687l-.49.193zm28.654 3.026H66.213c.09-.035.177-.077.266-.112a49.466 49.466 0 002.03-.85l.585-.265a43.23 43.23 0 001.834-.9c.203-.103.408-.204.61-.32a44.563 44.563 0 001.96-1.108c.12-.072.243-.136.363-.208.707-.43 1.401-.882 2.08-1.348.34-.23.67-.48 1.005-.715.334-.235.702-.505 1.046-.768a48.23 48.23 0 001.103-.866c.29-.235.577-.48.862-.715.38-.32.756-.64 1.12-.973.25-.224.49-.456.735-.685a50.831 50.831 0 002.427-2.441c.09-.097.184-.19.272-.287.088-.097.165-.155.245-.24h9.04v12.801z" fill="#EC405D"/><path d="M88.99 38.774c-.86-7.017-7.246-12.008-14.263-11.148-1.386.17-2.736.565-3.994 1.171-.012 0-.023 0-.032.01a.363.363 0 01-.074.041 12.779 12.779 0 00-2.904 1.935l-.085.077a12.8 12.8 0 00-3.724 5.92v.015c-.146.51-.26 1.03-.339 1.555a12.933 12.933 0 00-.173 2.002c.008 7.067 5.735 12.793 12.802 12.801a12.685 12.685 0 001.625-.115h.013c7.017-.86 12.009-7.246 11.148-14.264zM76.154 49.953c-.173 0-.343-.016-.514-.026-.145-.008-.294-.01-.438-.024-.183-.019-.36-.053-.54-.083-.137-.023-.275-.037-.41-.064-.178-.037-.351-.09-.527-.136-.13-.035-.263-.063-.39-.102-.169-.053-.33-.12-.494-.181-.13-.048-.26-.09-.387-.144-.16-.066-.305-.146-.46-.221-.124-.063-.254-.117-.377-.184-.123-.067-.278-.17-.417-.255-.14-.084-.253-.147-.373-.228-.12-.082-.247-.184-.371-.277-.125-.093-.248-.18-.367-.277-.118-.098-.22-.2-.331-.3-.11-.102-.239-.207-.349-.32-.11-.114-.195-.217-.294-.32a5.51 5.51 0 01-.32-.36c-.1-.124-.172-.23-.258-.343-.086-.114-.202-.26-.293-.396a5.81 5.81 0 01-.232-.38c-.072-.127-.171-.27-.248-.41-.077-.14-.126-.26-.189-.392-.062-.131-.15-.295-.214-.447-.064-.152-.1-.275-.152-.412-.051-.138-.122-.308-.171-.468-.05-.16-.095-.363-.141-.545-.03-.125-.069-.245-.095-.372-.041-.203-.067-.41-.094-.619-.016-.11-.04-.219-.051-.331a9.251 9.251 0 01.022-2.109l-.005-.005c.01-.08.026-.16.037-.237a8.996 8.996 0 01.223-1.091 9.685 9.685 0 014.032-5.575 26.856 26.856 0 015.237 16.034 26.3 26.3 0 01-.05 1.6zm3.22-.55c.014-.351.03-.702.03-1.05a30.463 30.463 0 00-5.44-17.325 9.564 9.564 0 0111.84 9.324 9.61 9.61 0 01-6.43 9.052zM61.806 21.15c.001-7.07-5.728-12.802-12.798-12.804-7.07-.002-12.803 5.728-12.805 12.798a12.801 12.801 0 0011.57 12.745h-.002c.134.012.273.01.408.02.273.018.545.042.822.042h.034c6.778-.006 12.376-5.295 12.767-12.062a1.611 1.611 0 00-.022-.232c0-.17.026-.336.026-.507zm-3.4 1.931a9.88 9.88 0 01-.28 1.042 9.669 9.669 0 01-.683 1.6 10.145 10.145 0 01-.761 1.164 9.79 9.79 0 01-.66.79l-.481.48a9.273 9.273 0 01-.662.567c-.23.177-.48.352-.72.51a7.16 7.16 0 01-.506.307 8.792 8.792 0 01-1.53.677 9.478 9.478 0 01-1.262.349c-.104.02-.212.03-.32.048a9.67 9.67 0 01-1.47.133h-.054a9.46 9.46 0 01-1.658-.149l-.076-.011a9.61 9.61 0 01-7.694-7.756 27.421 27.421 0 0118.853-.008c-.011.086-.017.173-.035.257zM39.56 19.486a9.612 9.612 0 019.441-7.937 9.6 9.6 0 019.441 7.913 30.66 30.66 0 00-18.882.024zm9.436 20.866a8 8 0 000 16.001 8.01 8.01 0 008.001-8 8 8 0 00-8-8.001zm0 12.8a4.8 4.8 0 110-9.6 4.8 4.8 0 010 9.6zM36.136 39.2c0-.073-.01-.145-.018-.215a12.41 12.41 0 00-.184-1.2l-.012-.058a12.87 12.87 0 00-.668-2.168 12.698 12.698 0 00-3.314-4.704 7.888 7.888 0 00-.512-.448 12.99 12.99 0 00-2.306-1.482 12.832 12.832 0 00-1.326-.573c-.08-.029-.15-.072-.232-.1a.677.677 0 00-.08-.014c-6.685-2.282-13.954 1.287-16.237 7.972-2.282 6.685 1.287 13.954 7.972 16.236.774.265 1.571.454 2.381.566l.13.02a12.95 12.95 0 001.662.12h.034c7.067-.007 12.793-5.734 12.801-12.8 0-.39-.057-.77-.091-1.153zm-17.51 9.152v.32a9.601 9.601 0 01-4.835-8.32 9.61 9.61 0 019.601-9.601c.282 0 .56.017.837.041a30.404 30.404 0 00-5.604 17.56zm11.56-1.217a9.601 9.601 0 01-6.773 2.817 9.184 9.184 0 01-1.544-.13c-.03-.508-.043-.995-.043-1.468a27.203 27.203 0 015.707-16.642l.253.112c.176.091.346.192.516.291.406.239.795.506 1.163.8l.035.028a9.6 9.6 0 01.686 14.192zm45.815 17.113a12.784 12.784 0 00-1.287-1.797c-.01-.017-.012-.017-.022-.037-.06-.07-.13-.13-.192-.201a13.286 13.286 0 00-.657-.685c-.11-.104-.221-.203-.333-.304-.216-.192-.437-.38-.666-.559-.125-.096-.25-.19-.376-.281-.234-.16-.47-.32-.714-.48a22.64 22.64 0 00-.39-.239c-.256-.147-.52-.283-.787-.414-.127-.061-.252-.125-.381-.183a12.54 12.54 0 00-.874-.347c-.118-.043-.235-.091-.355-.13-.32-.102-.64-.187-.96-.265-.11-.027-.22-.06-.332-.085a12.496 12.496 0 00-1.033-.171c-.1-.013-.197-.034-.296-.045a13.08 13.08 0 00-1.354-.072c-7.067.008-12.793 5.735-12.801 12.801.003.523.038 1.044.105 1.562.015.12.036.237.055.355.065.431.151.858.26 1.28.022.087.042.173.066.26a12.73 12.73 0 001.253 2.96c.015.024.024.05.037.073.013.025.026.028.035.044 3.601 6.075 11.445 8.08 17.52 4.48 6.075-3.602 8.08-11.445 4.48-17.52zm-14.867-2.294a9.582 9.582 0 013.858-.8c.565.003 1.13.056 1.685.16.042.008.085.012.125.019a9.653 9.653 0 011.571.45l.135.05c.499.2.98.44 1.44.72.045.028.09.054.133.082.457.288.89.614 1.292.975l.06.054a27.39 27.39 0 01-15.25 10.909c-2.117-4.852.1-10.502 4.95-12.62zm8.353 17.285a9.592 9.592 0 01-4.495 1.116 9.564 9.564 0 01-6.969-3.016 30.604 30.604 0 0015.45-11.065 9.591 9.591 0 01-3.986 12.965zM32.99 57.953c-.454.001-.907.026-1.357.074-.1.01-.197.032-.296.044-.35.047-.695.098-1.034.172-.112.024-.22.057-.331.085-.32.078-.64.16-.96.265-.12.039-.237.087-.356.13-.296.107-.588.219-.873.347-.13.058-.255.122-.381.182-.267.132-.531.268-.788.415-.13.077-.26.16-.39.238a12.342 12.342 0 00-1.09.762c-.228.18-.45.366-.665.558-.112.101-.224.2-.333.304-.229.22-.445.45-.658.685-.062.07-.131.132-.193.202a.241.241 0 01-.021.034c-4.593 5.364-3.968 13.436 1.396 18.029s13.436 3.968 18.03-1.396c.48-.561.91-1.162 1.286-1.797.01-.016.026-.027.035-.043.01-.016.023-.05.037-.074.541-.93.962-1.924 1.253-2.96.027-.094.048-.174.07-.254.108-.422.195-.85.26-1.28.019-.12.04-.237.054-.357.068-.519.103-1.04.106-1.564-.008-7.066-5.735-12.793-12.801-12.8zm0 22.402a9.591 9.591 0 01-8.481-14.081 30.604 30.604 0 0015.454 11.063 9.564 9.564 0 01-6.974 3.018zm8.8-5.786a27.39 27.39 0 01-15.25-10.908l.06-.055c.403-.36.835-.686 1.293-.974.043-.029.088-.054.133-.082.46-.28.94-.521 1.44-.721l.134-.05a9.653 9.653 0 011.572-.45c.04 0 .083-.01.125-.019a9.561 9.561 0 0111.293 9.444 9.564 9.564 0 01-.8 3.815z" fill="#EC405D"/></svg>