<svg width="79" height="105" viewBox="0 0 79 105" fill="none" xmlns="http://www.w3.org/2000/svg">
<path d="M76.3096 8.9607H20.6556C19.6645 3.29992 14.2721 -0.485857 8.61106 0.5053C3.65462 1.3731 0.0290497 5.66313 0 10.695V95.6761H0.156087C1.00568 100.677 5.33365 104.338 10.4058 104.348H58.9665C59.9243 104.348 60.7008 103.571 60.7008 102.613V97.4104H76.3096C77.2673 97.4104 78.0439 96.6339 78.0439 95.6761V10.695C78.0439 9.73724 77.2673 8.9607 76.3096 8.9607ZM3.46862 10.695C3.46862 6.86371 6.57454 3.75778 10.4058 3.75778C14.2372 3.75778 17.3431 6.86371 17.3431 10.695V86.2068C13.4038 82.6458 7.4081 82.6458 3.46862 86.2068V10.695ZM57.2322 100.879H10.4058C6.57454 100.879 3.46862 97.7731 3.46862 93.9418C3.46862 90.1105 6.57454 87.0046 10.4058 87.0046C14.2372 87.0046 17.3431 90.1105 17.3431 93.9418V95.6761C17.3431 96.6339 18.1196 97.4104 19.0774 97.4104H57.2322V100.879ZM74.5753 93.9418H20.8117V12.4293H74.5753V93.9418Z" fill="#EC405D"/>
<path d="M69.3683 15.8984H26.0106C25.0528 15.8984 24.2762 16.675 24.2762 17.6327V34.9758C24.2762 35.9336 25.0528 36.7101 26.0106 36.7101H69.3683C70.326 36.7101 71.1026 35.9336 71.1026 34.9758V17.6327C71.1026 16.675 70.326 15.8984 69.3683 15.8984ZM67.6339 33.2415H27.7449V19.3671H67.6339V33.2415Z" fill="#EC405D"/>
<path d="M46.8222 40.1777H26.0106C25.0528 40.1777 24.2762 40.9543 24.2762 41.912V60.9894C24.2762 61.9472 25.0528 62.7237 26.0106 62.7237H46.8222C47.78 62.7237 48.5566 61.9472 48.5566 60.9894V41.912C48.5566 40.9543 47.78 40.1777 46.8222 40.1777ZM45.0879 59.2551H27.7449V43.6464H45.0879V59.2551Z" fill="#EC405D"/>
<path d="M69.37 66.1934H48.5583C47.6006 66.1934 46.824 66.9699 46.824 67.9277V88.7394C46.824 89.6971 47.6006 90.4737 48.5583 90.4737H69.37C70.3278 90.4737 71.1043 89.6971 71.1043 88.7394V67.9277C71.1043 66.9699 70.3278 66.1934 69.37 66.1934ZM67.6357 87.0051H50.2927V69.662H67.6357V87.0051Z" fill="#EC405D"/>
<path d="M71.11 41.9121H52.0326V45.3807H71.11V41.9121Z" fill="#EC405D"/>
<path d="M71.11 48.8496H52.0326V52.3182H71.11V48.8496Z" fill="#EC405D"/>
<path d="M71.11 55.7871H52.0326V59.2557H71.11V55.7871Z" fill="#EC405D"/>
<path d="M43.3536 66.1934H24.2762V69.662H43.3536V66.1934Z" fill="#EC405D"/>
<path d="M43.3536 73.1309H24.2762V76.5995H43.3536V73.1309Z" fill="#EC405D"/>
<path d="M43.3536 80.0664H24.2762V83.535H43.3536V80.0664Z" fill="#EC405D"/>
<path d="M43.3536 87.0039H24.2762V90.4725H43.3536V87.0039Z" fill="#EC405D"/>
</svg>
