<svg width="35" height="35" viewBox="0 0 35 35" fill="none" xmlns="http://www.w3.org/2000/svg">
<path d="M34.4906 0.455333C34.4889 0.453695 34.487 0.452261 34.4854 0.450623C34.1963 0.164155 33.798 0 33.3914 0H33.3894C33.0379 0 32.6939 0.120812 32.4209 0.339844C28.7044 3.30828 24.9743 6.37227 21.3336 9.4465C20.4483 10.194 19.5623 10.9473 18.6771 11.7048L8.56994 1.59779C7.57191 0.599898 5.94811 0.600034 4.95015 1.59779L0.14994 6.39807C-0.0499801 6.59806 -0.0499801 6.92214 0.14994 7.12206C0.349861 7.32191 0.674006 7.32191 0.873859 7.12206L4.22623 3.76975L4.95882 4.50234L1.60651 7.85464C1.40659 8.05463 1.40659 8.37871 1.60651 8.57863C1.70644 8.67855 1.83749 8.72852 1.96847 8.72852C2.09945 8.72852 2.23051 8.67855 2.33043 8.57863L5.6828 5.22633L6.41539 5.95891L3.06302 9.31122C2.8631 9.5112 2.8631 9.83528 3.06302 10.0352C3.16294 10.1351 3.29399 10.1851 3.42498 10.1851C3.55596 10.1851 3.68701 10.1351 3.78694 10.0352L7.13931 6.68283L7.87189 7.41542L4.51959 10.7677C4.31967 10.9677 4.31967 11.2918 4.51959 11.4917C4.61952 11.5916 4.75057 11.6416 4.88155 11.6416C5.01253 11.6416 5.14358 11.5916 5.24351 11.4917L8.59581 8.1394L9.3284 8.87199L5.9761 12.2243C5.77618 12.4243 5.77618 12.7484 5.9761 12.9483C6.07602 13.0482 6.20707 13.0982 6.33805 13.0982C6.46904 13.0982 6.60009 13.0482 6.70001 12.9483L10.0523 9.59598L10.7849 10.3286L7.4326 13.6809C7.23268 13.8809 7.23268 14.2049 7.4326 14.4049C7.53253 14.5048 7.66358 14.5547 7.79456 14.5547C7.92554 14.5547 8.05659 14.5048 8.15652 14.4049L11.5088 11.0526L12.2414 11.7851L8.88911 15.1374C8.68919 15.3374 8.68919 15.6615 8.88911 15.8614C8.98903 15.9614 9.12008 16.0113 9.25106 16.0113C9.38205 16.0113 9.5131 15.9614 9.61302 15.8614L12.9653 12.5091L13.698 13.2418L10.3457 16.5941C10.1458 16.7941 10.1458 17.1181 10.3457 17.3181C10.4456 17.418 10.5767 17.468 10.7076 17.468C10.8386 17.468 10.9697 17.418 11.0696 17.3181L14.422 13.9657L15.1804 14.7241C13.6085 16.0929 12.0448 17.4699 10.4986 18.8486C10.498 18.8486 10.498 18.8486 10.498 18.8494C10.0387 19.2579 9.53767 19.7284 9.04343 20.1742C8.74065 20.3932 8.79833 20.7782 8.94856 20.9284C8.94856 20.9284 8.94856 20.9291 8.94924 20.9291C9.44204 21.5257 9.71438 22.2874 9.71438 23.075C9.71438 23.9958 9.36014 24.8572 8.71656 25.5001C8.71007 25.5066 7.1793 27.0375 7.17262 27.0441C4.94646 29.3221 1.02607 27.7676 1.02382 24.5413C1.02518 22.5825 2.60714 20.9648 4.6058 20.9633C5.69441 20.964 6.71073 21.4486 7.39397 22.2916C7.57928 22.52 7.91954 22.5447 8.13522 22.3489C8.13795 22.3469 8.14 22.3448 8.14273 22.3421L8.14751 22.3379C8.38729 22.1224 8.37036 21.7339 8.10246 21.5421C7.22742 20.5237 5.95446 19.9395 4.60921 19.9395H4.60239C2.04294 19.9395 -0.00295206 22.0237 5.11848e-05 24.5413C-0.00220125 26.4384 1.15712 28.114 2.87218 28.8107C3.89055 29.2231 5.00612 29.2515 6.01384 28.9284C5.05335 31.9164 7.28879 34.9468 10.3958 34.9468H10.4012C12.9401 34.9468 15.0092 32.8915 15.0064 30.3423C15.0077 29.1308 14.5409 27.9875 13.6938 27.122C13.6943 27.1214 14.7391 25.9337 14.7391 25.9337C16.5833 23.8815 18.4076 21.8199 20.2098 19.7533L20.9811 20.5246L17.6287 23.8769C17.4288 24.0769 17.4288 24.4009 17.6287 24.6009C17.7287 24.7008 17.8598 24.7508 17.9908 24.7508C18.1218 24.7508 18.2528 24.7008 18.3528 24.6009L21.7051 21.2486L22.4377 21.9811L19.0854 25.3335C18.8855 25.5334 18.8855 25.8575 19.0854 26.0574C19.1854 26.1574 19.3164 26.2073 19.4474 26.2073C19.5784 26.2073 19.7094 26.1574 19.8094 26.0574L23.1617 22.7051L23.8943 23.4377L20.542 26.79C20.342 26.9899 20.342 27.314 20.542 27.5139C20.642 27.6139 20.773 27.6638 20.904 27.6638C21.035 27.6638 21.166 27.6139 21.266 27.5139L24.6183 24.1616L25.3508 24.8942L21.9985 28.2465C21.7986 28.4465 21.7986 28.7706 21.9985 28.9705C22.0985 29.0704 22.2296 29.1204 22.3606 29.1204C22.4915 29.1204 22.6226 29.0704 22.7226 28.9705L26.0749 25.6181L26.8075 26.3507L23.4552 29.703C23.2553 29.903 23.2553 30.2271 23.4552 30.427C23.5552 30.5269 23.6862 30.5769 23.8172 30.5769C23.9482 30.5769 24.0792 30.5269 24.1792 30.427L27.5315 27.0747L28.2641 27.8072L24.9117 31.1595C24.7118 31.3595 24.7118 31.6836 24.9117 31.8835C25.0117 31.9835 25.1428 32.0334 25.2738 32.0334C25.4048 32.0334 25.5358 31.9835 25.6358 31.8835L28.9881 28.5312L29.7206 29.2637L26.3683 32.616C26.1684 32.816 26.1684 33.1401 26.3683 33.34C26.4683 33.44 26.5994 33.4899 26.7304 33.4899C26.8613 33.4899 26.9924 33.44 27.0924 33.34L30.4447 29.9877L31.1772 30.7202L27.8249 34.0726C27.625 34.2725 27.625 34.5966 27.8249 34.7965C27.9249 34.8965 28.0559 34.9464 28.1869 34.9464C28.3179 34.9464 28.449 34.8965 28.549 34.7965L32.2627 31.0827C32.2629 31.0825 32.2631 31.0823 32.2633 31.0822C32.2635 31.0821 32.2636 31.0819 32.2638 31.0817L33.3492 29.9963C33.8326 29.5128 34.0989 28.87 34.0989 28.1863C34.0989 27.5026 33.8326 26.8598 33.3492 26.3764L23.2309 16.2588C27.1559 11.6801 30.9608 7.08752 34.6066 2.52477C35.1013 1.90563 35.0513 1.01598 34.4906 0.455333ZM4.95022 3.04577L5.67413 2.32185C6.27287 1.72311 7.24722 1.72311 7.84602 2.32185L17.8979 12.3738C17.2494 12.9309 16.6014 13.4895 15.9548 14.0505L4.95022 3.04577ZM32.625 27.1009C32.9151 27.3909 33.0749 27.7765 33.0749 28.1867C33.0749 28.597 32.9151 28.9826 32.625 29.2726L31.9011 29.9965C31.5628 29.6584 21.6099 19.7054 20.8836 18.9791C21.4453 18.3326 22.0052 17.6856 22.5623 17.0382L32.625 27.1009ZM14.2624 24.9313C14.0143 24.7413 13.3527 24.4125 13.2427 23.4785C13.212 23.2205 12.9943 23.0266 12.7356 23.0266C12.4263 23.0266 12.1906 23.2952 12.2257 23.5987C12.2264 23.5987 12.2264 23.5987 12.2264 23.5987C12.324 24.4334 12.7772 25.1713 13.4693 25.6224C13.5055 25.6463 13.5417 25.6708 13.5792 25.6981C13.2242 26.1032 12.9311 26.4443 12.595 26.8155C12.5015 26.9192 12.4537 27.0591 12.4646 27.1983C12.4748 27.3376 12.5438 27.4686 12.6523 27.5567C13.5114 28.258 13.9818 29.2674 13.9826 30.3422C13.9812 32.3151 12.3918 33.9216 10.3993 33.9229C8.42981 33.9203 6.81591 32.3331 6.81591 30.3422C6.81823 28.7221 7.84295 27.8544 7.92165 27.7431L9.44034 26.2244C10.277 25.3877 10.7385 24.2558 10.7385 23.075C10.7392 22.2123 10.4921 21.3789 10.0253 20.6663C10.4261 20.2998 10.7747 19.9746 11.1795 19.6138L11.1815 19.611C22.2808 9.71454 32.9292 1.20737 33.1293 1.09277C32.992 1.23003 13.0188 21.1946 12.9267 21.2985C12.739 21.51 12.7588 21.8343 12.9697 22.0213C13.1817 22.2101 13.5064 22.188 13.6925 21.9783C13.7537 21.9085 33.707 1.96255 33.8533 1.81628C33.8115 1.88993 25.5672 12.3323 14.2624 24.9313Z" fill="white"/>
<path d="M6.41757 22.7342C4.80285 21.1195 2.04772 22.283 2.04785 24.5437C2.04785 25.227 2.31425 25.8696 2.79798 26.3533C3.297 26.8522 3.95225 27.1016 4.60778 27.1016C5.2631 27.1016 5.91862 26.8521 6.41757 26.3533C7.41663 25.3544 7.41676 23.7331 6.41757 22.7342ZM5.69372 25.6292C5.09491 26.2277 4.12064 26.2279 3.52183 25.6292C2.56284 24.6703 3.23434 23.0091 4.60778 23.0091C5.98517 23.0092 6.64834 24.6747 5.69372 25.6292Z" fill="white"/>
<path d="M10.3994 27.7832C9.34686 27.7832 8.44268 28.3875 8.0397 29.3605C7.63474 30.3381 7.84551 31.4078 8.5897 32.1518C9.084 32.646 9.72076 32.9051 10.3783 32.9051C10.7105 32.9051 11.0481 32.8389 11.3751 32.7035C12.352 32.2987 12.9589 31.3939 12.9589 30.3422C12.9589 28.9312 11.8107 27.7832 10.3994 27.7832ZM10.9831 31.7577C10.5252 31.9473 9.84608 31.9603 9.31348 31.4278C8.78061 30.895 8.79474 30.213 8.98551 29.7522C9.17478 29.2953 9.64561 28.807 10.3994 28.807C11.2461 28.807 11.935 29.4957 11.935 30.3422C11.935 31.095 11.4433 31.567 10.9831 31.7577Z" fill="white"/>
</svg>
