<svg width="582" height="474" viewBox="0 0 582 474" fill="none" xmlns="http://www.w3.org/2000/svg">
<path d="M47.4624 317.028C28.0554 304.516 24.7231 277.481 40.5112 260.631L236.027 51.9719C244.994 42.4018 258.357 38.2937 271.152 41.174L634.299 122.923C660.627 128.85 671.113 160.722 653.446 181.123C651.49 183.382 649.825 185.878 648.491 188.551L617.201 251.243C613.482 258.693 607.36 264.671 599.823 268.21L254.991 430.148C243.45 435.568 229.931 434.663 219.215 427.755L47.4624 317.028Z" fill="#FFC9D2"/>
<path d="M47.4619 298.503C28.0549 285.991 24.7226 258.956 40.5107 242.106L236.026 33.447C244.993 23.8769 258.357 19.7688 271.151 22.6491L634.298 104.398C660.627 110.325 671.113 142.197 653.446 162.599C651.489 164.857 649.825 167.353 648.49 170.026L617.2 232.718C613.482 240.168 607.359 246.146 599.822 249.685L254.991 411.623C243.449 417.043 229.931 416.138 219.215 409.23L47.4619 298.503Z" fill="url(#paint0_linear)"/>
<defs>
<linearGradient id="paint0_linear" x1="353.253" y1="167.022" x2="19.2582" y2="186.084" gradientUnits="userSpaceOnUse">
<stop stop-color="#EC405D"/>
<stop offset="1" stop-color="#C1223D"/>
</linearGradient>
</defs>
</svg>
