<svg width="88" height="199" viewBox="0 0 88 199" fill="none" xmlns="http://www.w3.org/2000/svg">
<path d="M61.5115 138.782C63.1888 144.345 59.4173 150.068 53.6441 150.721L-17.8769 158.809C-21.156 159.18 -24.3863 157.787 -26.3678 155.148L-82.6262 80.227C-86.705 74.7951 -83.5141 66.976 -76.7994 65.9488C-76.056 65.8351 -75.3298 65.6285 -74.6378 65.3339L-58.4112 58.4243C-56.4835 57.6035 -54.3354 57.4569 -52.3141 58.0081L40.1971 83.2386C43.2923 84.0828 45.7348 86.4611 46.661 89.5328L61.5115 138.782Z" fill="#FFC9D2"/>
<path d="M61.5105 130.779C63.1884 136.343 59.4157 142.068 53.6407 142.721L-17.8753 150.809C-21.1554 151.18 -24.3867 149.787 -26.3688 147.147L-82.6262 72.227C-86.705 66.7951 -83.5141 58.976 -76.7994 57.9488C-76.056 57.8351 -75.3298 57.6285 -74.6378 57.3339L-58.4121 50.4247C-56.4838 49.6036 -54.335 49.4569 -52.3131 50.0084L40.1955 75.2382C43.2917 76.0826 45.7349 78.4617 46.6614 81.5343L61.5105 130.779Z" fill="url(#paint0_linear)"/>
<defs>
<linearGradient id="paint0_linear" x1="95.4999" y1="95.0001" x2="-61.5001" y2="102" gradientUnits="userSpaceOnUse">
<stop stop-color="#EC405D"/>
<stop offset="1" stop-color="#C1223D"/>
</linearGradient>
</defs>
</svg>
