<svg width="79" height="109" viewBox="0 0 79 109" fill="none" xmlns="http://www.w3.org/2000/svg">
<path d="M73.2824 78.2293C71.8583 71.0961 65.1668 69.882 65.1457 69.8723V69.8725C65.0737 69.8514 65.7595 70.0234 48.8261 65.826V65.2514H61.2914C63.8608 65.2514 65.9511 63.161 65.9511 60.5917V36.8183C66.1606 35.9343 66.161 35.0154 65.9511 34.1296V25.4531C65.9511 24.5787 65.2423 23.8704 64.3683 23.8704C63.4939 23.8704 62.7855 24.5787 62.7855 25.4531V29.9955C61.9499 29.4967 60.9956 29.139 59.9671 28.962C59.5957 27.3125 58.2259 26.0085 56.4886 25.7804C54.6778 25.5424 53.3054 24.4867 52.4096 22.6429C51.9904 21.7797 51.1691 21.2127 50.2132 21.1258C49.2565 21.0393 48.3507 21.448 47.7837 22.2199C45.0629 25.9226 37.4994 34.2277 24.4386 34.2273C23.4449 34.2273 22.7712 34.1802 22.5365 34.1697C20.1365 34.0251 18.1073 35.9428 18.1073 38.3476V41.9844C18.1073 47.797 20.5187 53.4322 24.7228 57.4447C26.1171 58.7756 27.6552 59.8857 29.2953 60.7709V62.0863H16.887C16.063 62.0863 15.3926 61.4159 15.3926 60.5921V25.0267C15.3926 13.4966 24.7937 3.9957 36.1497 3.9957C36.1865 3.9957 36.2232 3.99591 36.2597 3.99612C40.3283 4.01785 45.026 5.17354 48.2272 6.93947C50.2561 8.05929 51.5093 7.16926 53.5128 7.16926C58.4029 7.16926 62.3217 12.1976 62.7914 16.7201C62.7944 16.7864 62.8014 17.0516 62.8022 18.0678C62.8033 19.5958 64.5289 19.7131 64.3862 19.6494C65.2607 19.6487 65.9684 18.9393 65.9678 18.0653C65.9675 17.7842 65.9699 16.6822 65.9435 16.4264C65.3071 10.1306 59.9367 4.00371 53.513 4.00371C51.0041 4.00371 50.6131 4.63969 49.7566 4.16788C46.1266 2.1652 40.8354 0.855047 36.2768 0.83057C23.1369 0.745534 12.2269 11.692 12.2269 25.0265V60.5919C12.2269 63.1614 14.3173 65.2516 16.8868 65.2516H29.2953V65.8262L13.0397 69.855C13.0182 69.8603 12.9971 69.8664 12.9757 69.8725L11.7882 70.2228C11.7525 70.2333 11.7175 70.2449 11.6827 70.2578C9.56332 71.0487 5.85612 73.1357 4.83884 78.2301C0.0215228 102.429 0.224303 101.396 0.212697 101.479C-0.367576 105.583 1.68701 108.866 6.62946 108.866H23.7454C24.6198 108.866 25.3282 108.157 25.3282 107.283C25.3282 106.409 24.6196 105.7 23.7454 105.7H17.7893V90.7716C17.7893 89.8972 17.0807 89.1888 16.2065 89.1888C15.3323 89.1888 14.6237 89.8974 14.6237 90.7716V105.7H6.62946C4.52697 105.7 3.30608 105.024 3.28582 102.815C3.27696 101.738 3.23455 102.788 7.94341 78.849C8.65219 75.2992 11.2299 73.8165 12.7401 73.2423L13.8377 72.9186L23.1727 70.6049C33.5571 82.8383 32.9422 82.1901 33.5423 82.7755C37.0083 86.1564 41.9539 85.9178 45.209 82.0952L54.9839 70.6136L64.2833 72.9184C64.5523 73.0421 69.1814 73.8563 70.178 78.8484C74.8464 102.58 74.8447 101.732 74.8358 102.814C74.8198 104.977 73.6495 105.701 71.4922 105.701H63.5547V90.7716C63.5547 89.8972 62.8463 89.1888 61.9719 89.1888C61.0975 89.1888 60.3891 89.8974 60.3891 90.7716V105.7H31.1318C30.2573 105.7 29.549 106.409 29.549 107.283C29.549 108.158 30.2575 108.866 31.1318 108.866H71.4924C75.4028 108.866 77.9655 106.714 78.0016 102.839C78.0149 101.029 77.907 101.894 73.2824 78.2293ZM60.0707 32.2273C61.3925 32.6205 62.4118 33.4915 62.7858 34.5672V36.3806C62.4118 37.4566 61.3925 38.3276 60.0707 38.7205V32.2273ZM60.0707 42.2599V41.9677C61.0599 41.785 61.9784 41.4347 62.7858 40.9525V60.5919C62.7858 61.4159 62.1154 62.0859 61.2916 62.0859H48.8261V60.8627C55.537 57.3542 60.0707 50.3295 60.0707 42.2599ZM26.9086 55.1545C23.3272 51.7359 21.2732 46.9357 21.2732 41.984C21.3673 38.5378 21.0451 38.1202 21.595 37.6024C21.7898 37.4188 22.0516 37.3122 22.3464 37.3291C33.6953 38.0124 43.4565 33.0233 49.9012 24.6699C51.6388 27.7211 54.1872 28.671 56.0765 28.9194C56.5488 28.9814 56.9052 29.3844 56.9052 29.8573C56.9052 34.2359 56.9052 37.913 56.9052 42.2602C56.9052 58.009 38.0511 65.7891 26.9086 55.1545ZM42.7982 80.0429C40.5929 82.6334 37.5059 82.6265 35.3059 80.0298L32.0034 76.1319H46.1279L42.7982 80.0429ZM48.8233 72.9661H29.3217L26.6016 69.7554L31.2594 68.6008C31.9659 68.4258 32.4613 67.7764 32.4613 67.0488L32.4615 62.1521C36.8167 63.6039 41.4161 63.588 45.6605 62.1973C45.6903 67.2562 45.5926 67.1404 45.7487 67.5866C45.9213 68.08 46.3326 68.4693 46.8622 68.6005L51.5506 69.7626L48.8233 72.9661Z" fill="#EC405D"/>
</svg>
