<svg width="90" height="91" viewBox="0 0 90 91" fill="none" xmlns="http://www.w3.org/2000/svg">
<path d="M12.6313 73.8443L21.0938 78.0748V88.5898C21.0938 89.5607 21.8809 90.3477 22.8516 90.3477H41.4844C42.455 90.3477 43.2422 89.5607 43.2422 88.5898V64.5869C43.2422 59.2015 39.2022 54.7353 33.857 54.1995C33.8363 54.1937 26.4215 53.0362 22.9815 49.5959L19.0338 45.65C17.7056 44.3214 15.94 43.5898 14.0625 43.5898V29.5273C14.0625 25.6503 10.9083 22.4961 7.03125 22.4961C3.15422 22.4961 0 25.6503 0 29.5273V53.4055C0 62.056 4.88637 69.9709 12.6313 73.8443ZM3.51562 29.5273C3.51562 27.5888 5.09273 26.0117 7.03125 26.0117C8.96977 26.0117 10.5469 27.5888 10.5469 29.5273V44.5322C8.40305 45.7718 7.03125 48.083 7.03125 50.6211C7.03125 52.4984 7.76285 54.2638 9.09123 55.5922L18.093 64.5957C18.7791 65.2821 19.8923 65.2825 20.5789 64.5959C21.2653 63.9095 21.2655 62.7966 20.5791 62.11L11.5773 53.1063C10.9129 52.442 10.5469 51.5594 10.5469 50.6211C10.5469 49.1333 11.4885 47.8009 12.8904 47.3057C12.8909 47.3055 12.8914 47.3052 12.892 47.305H12.8921C14.1043 46.8754 15.5424 47.1303 16.5482 48.1361L20.4959 52.0822C24.5716 56.1577 33.4761 57.6914 33.4939 57.6963C37.0471 58.0524 39.7266 61.0149 39.7266 64.5869V86.832H24.6094V76.9883C24.6094 76.3224 24.233 75.7137 23.6377 75.4161L14.2037 70.6999C7.61115 67.4028 3.51562 60.776 3.51562 53.4055V29.5273Z" fill="#EC405D"/>
<path d="M23.9062 43.5898H66.0938C67.0644 43.5898 67.8516 42.8029 67.8516 41.832V2.10547C67.8516 1.13463 67.0644 0.347656 66.0938 0.347656H23.9062C22.9356 0.347656 22.1484 1.13463 22.1484 2.10547V41.832C22.1484 42.8029 22.9356 43.5898 23.9062 43.5898ZM39.7266 3.86328H50.2734V13.3367L45.7075 11.077C45.2118 10.8314 44.6289 10.8341 44.1353 11.0835L39.7266 13.3106V3.86328ZM25.6641 3.86328H36.2109V16.168C36.2109 16.7785 36.5277 17.3454 37.0478 17.6653C37.5676 17.985 38.2166 18.0123 38.7613 17.737L44.936 14.6178L51.2517 17.7435C51.7871 18.0086 52.4333 17.9877 52.9585 17.6614C53.4749 17.3406 53.7891 16.7758 53.7891 16.168V3.86328H64.3359V40.0742H25.6641V3.86328Z" fill="#EC405D"/>
<path d="M59.0625 31.2852H48.5156C47.545 31.2852 46.7578 32.0721 46.7578 33.043C46.7578 34.0138 47.545 34.8008 48.5156 34.8008H59.0625C60.0332 34.8008 60.8203 34.0138 60.8203 33.043C60.8203 32.0721 60.0332 31.2852 59.0625 31.2852Z" fill="#EC405D"/>
<path d="M80.6836 71.3633C81.6544 71.3633 82.4414 70.5763 82.4414 69.6055C82.4414 68.6347 81.6544 67.8477 80.6836 67.8477C79.7128 67.8477 78.9258 68.6347 78.9258 69.6055C78.9258 70.5763 79.7128 71.3633 80.6836 71.3633Z" fill="#EC405D"/>
<path d="M82.9688 22.4961C79.0917 22.4961 75.9375 25.6503 75.9375 29.5273V43.5898C74.06 43.5898 72.2944 44.3214 70.9666 45.6495L67.0182 49.5961C64.8561 51.7584 59.3789 53.8741 56.273 54.1854L56.1556 54.1981C50.7978 54.7353 46.7578 59.2015 46.7578 64.5869V88.5898C46.7578 89.5607 47.545 90.3477 48.5156 90.3477H67.1484C68.1191 90.3477 68.9062 89.5607 68.9062 88.5898V78.0748L74.6596 75.1987C75.5278 74.7645 75.8798 73.7087 75.4458 72.8402C75.0118 71.9722 73.9563 71.6199 73.0876 72.0539L66.3623 75.4157C65.767 75.7137 65.3906 76.3224 65.3906 76.9883V86.832H50.2734V64.5869C50.2734 61.0149 52.9529 58.0524 56.5188 57.6949L56.6364 57.6822C60.4492 57.2999 66.7622 54.8237 69.5037 52.0824L73.4521 48.1357C74.4583 47.1295 75.8978 46.8761 77.1078 47.305H77.108C77.1086 47.3052 77.1091 47.3055 77.1096 47.3057C79.5303 48.1609 80.2591 51.2697 78.4229 53.1066L69.4211 62.1102C68.7347 62.7968 68.7349 63.9096 69.4213 64.5961C70.1075 65.2823 71.2208 65.2825 71.9072 64.5959L80.9089 55.5924C84.1586 52.3422 83.4817 46.8615 79.4533 44.5322V29.5273C79.4533 27.5888 81.0304 26.0117 82.9689 26.0117C84.9074 26.0117 86.4846 27.5888 86.4846 29.5273V53.4055C86.4846 56.6216 85.673 59.8145 84.1373 62.6389C83.6735 63.4918 83.989 64.5591 84.8421 65.0229C85.6948 65.4862 86.7623 65.171 87.226 64.3181C89.0408 60.9801 90 57.2064 90 53.4055V29.5273C90 25.6503 86.8458 22.4961 82.9688 22.4961Z" fill="#EC405D"/>
</svg>
