<svg width="3" height="13" viewBox="0 0 3 13" fill="none" xmlns="http://www.w3.org/2000/svg">
<path d="M1.5 3.89087C2.325 3.89087 3 3.21587 3 2.39087C3 1.56587 2.325 0.890869 1.5 0.890869C0.675 0.890869 0 1.56587 0 2.39087C0 3.21587 0.675 3.89087 1.5 3.89087ZM1.5 5.39087C0.675 5.39087 0 6.06587 0 6.89087C0 7.71587 0.675 8.39087 1.5 8.39087C2.325 8.39087 3 7.71587 3 6.89087C3 6.06587 2.325 5.39087 1.5 5.39087ZM1.5 9.89087C0.675 9.89087 0 10.5659 0 11.3909C0 12.2159 0.675 12.8909 1.5 12.8909C2.325 12.8909 3 12.2159 3 11.3909C3 10.5659 2.325 9.89087 1.5 9.89087Z" fill="#D2D2D2"/>
</svg>
