<svg width="110" height="97" viewBox="0 0 110 97" fill="none" xmlns="http://www.w3.org/2000/svg">
<path d="M67.689 71.166H61.659C60.7691 71.166 60.0476 71.8875 60.0476 72.7774C60.0476 73.6675 60.7691 74.3887 61.659 74.3887H67.689C68.5789 74.3887 69.3004 73.6675 69.3004 72.7774C69.3004 71.8875 68.5789 71.166 67.689 71.166Z" fill="#EC405D"/>
<path d="M103.179 53.9149L94.4047 50.5304L89.9309 46.0567C89.6437 45.7694 89.2735 45.6139 88.8954 45.5896V42.0298C91.0039 39.7817 92.5048 36.9347 93.1104 33.7275C93.4864 33.7445 93.866 33.7142 94.2405 33.6377C96.3845 33.1988 97.9406 31.2095 97.9406 28.9081V27.7331C97.9406 26.4017 97.4007 25.1796 96.5215 24.3059C97.9445 16.5671 96.7725 10.2605 93.1171 6.03939C89.5814 1.95667 83.8849 0.00521731 76.6444 0.396882C69.9549 0.758469 65.6365 3.83636 64.2684 4.96237C63.5194 5.05132 62.2437 5.31429 60.9524 6.08903C59.1628 7.16283 57.0295 9.4185 57.0295 14.0663C57.0295 18.1209 57.6775 21.506 58.1467 23.4265C56.5741 24.1926 55.522 25.853 55.522 27.7511V28.9079C55.522 31.2093 57.0781 33.1986 59.2221 33.6375C59.5965 33.7142 59.9764 33.7443 60.3521 33.7273C60.9578 36.9345 62.4589 39.7815 64.5672 42.0296V45.5894C64.1891 45.6137 63.8187 45.7692 63.5317 46.0565L59.0579 50.5302L50.2834 53.9147C49.5243 54.2073 48.7992 54.587 48.1285 55.0427C47.3924 55.5428 47.2012 56.5449 47.7011 57.2809C48.0129 57.7398 48.5197 57.9869 49.0353 57.9869C49.3471 57.9869 49.662 57.8965 49.9394 57.7082C50.4071 57.3905 50.9131 57.1258 51.4431 56.9213L59.5864 53.7802L65.8127 63.1198C66.5844 64.2776 67.8215 65.0203 69.2062 65.1574C69.3602 65.1727 69.5143 65.1802 69.6672 65.1802C70.4688 65.1802 71.2466 64.9694 71.9349 64.5799L70.5988 94.8879C70.5595 95.7769 71.2485 96.5295 72.1378 96.5686C72.1618 96.5697 72.1859 96.5701 72.2099 96.5701C73.0672 96.5701 73.7805 95.8944 73.8185 95.0297L75.0586 66.8974H78.4038L79.6439 95.0297C79.6819 95.8946 80.3952 96.5701 81.2524 96.5701C81.2765 96.5701 81.3005 96.5697 81.3246 96.5686C82.2136 96.5295 82.9026 95.7769 82.8635 94.8879L81.5274 64.5799C82.2158 64.9694 82.9933 65.1802 83.7951 65.1802C83.9481 65.1802 84.1021 65.1727 84.2562 65.1574C85.6409 65.0203 86.8777 64.2776 87.6497 63.1198L93.8759 53.7802L102.019 56.9213C103.161 57.3617 104.145 58.0645 104.918 58.9413L99.3463 64.5124C97.3335 66.5253 96.2251 69.2015 96.2251 72.0477V94.959C96.2251 95.8489 96.9465 96.5703 97.8364 96.5703C98.7263 96.5703 99.4478 95.8489 99.4478 94.959V72.0477C99.4478 70.0623 100.221 68.1953 101.625 66.7913L106.514 61.9018C106.711 62.6222 106.803 63.3796 106.772 64.1539L105.524 94.8937C105.488 95.7829 106.179 96.5329 107.068 96.5693C107.09 96.5701 107.113 96.5705 107.135 96.5705C107.994 96.5705 108.708 95.8914 108.744 95.0247L109.992 64.2841C110.175 59.7242 107.437 55.5572 103.179 53.9149ZM63.5065 33.063C63.2223 31.5159 61.7897 30.3914 60.2434 30.5059C60.1212 30.5147 59.9953 30.5061 59.8685 30.4803C59.2279 30.3493 58.7447 29.6732 58.7447 28.9081V27.7509C58.7447 27.0035 59.2442 26.3301 59.8816 26.2182C60.4196 26.1237 60.9348 26.3211 61.2607 26.7463C61.5566 27.1319 61.9512 27.4078 62.4018 27.5436C63.0618 27.743 63.7895 27.6259 64.3489 27.231C65.3566 26.5196 66.2456 25.6506 66.9913 24.6477C67.5224 23.9335 67.3738 22.9242 66.6598 22.3933C65.9455 21.8622 64.9363 22.0107 64.4052 22.7248C64.0333 23.225 63.6131 23.6789 63.1505 24.0807C62.6396 23.6437 62.0428 23.3279 61.4032 23.1476C60.9892 21.5616 60.2522 18.1638 60.2522 14.0658C60.2522 11.5979 61.013 9.86388 62.5133 8.91211C63.684 8.16938 64.923 8.13973 64.9221 8.13952C65.334 8.13952 65.7349 7.97731 66.034 7.69436C66.0733 7.6574 70.0344 3.98138 76.818 3.61464C83.0275 3.27948 87.8211 4.847 90.6805 8.14876C93.5625 11.4767 94.5222 16.586 93.481 22.9809C93.0494 22.9656 92.577 22.9983 92.1067 23.0767L90.5929 19.4411C90.2839 18.6994 89.4748 18.299 88.6975 18.5016C88.5477 18.5407 73.6673 22.3129 67.4279 14.545C66.8708 13.8512 65.8567 13.7404 65.1626 14.2977C64.4688 14.855 64.358 15.8691 64.9155 16.563C71.287 24.4956 83.9294 22.7699 88.1378 21.9284L89.3085 24.7396C89.8119 25.9481 91.0997 26.6082 92.369 26.3089C92.89 26.1862 93.3878 26.1834 93.5747 26.2204C94.2263 26.3501 94.7177 27 94.7177 27.7327V28.9079C94.7177 29.6731 94.2345 30.3491 93.5938 30.4801C93.4673 30.5061 93.3407 30.5147 93.2189 30.5057C91.6729 30.3931 90.2403 31.5155 89.9558 33.063C88.7836 39.4448 83.2219 44.0769 76.7312 44.0769C70.2405 44.0769 64.6787 39.4448 63.5065 33.063ZM70.6547 61.5465C70.246 61.9551 69.771 61.9751 69.5239 61.9506C69.2771 61.9263 68.8149 61.8133 68.4944 61.3325L62.222 51.9239L64.7445 49.4014L74.3739 57.8273L70.6547 61.5465ZM75.2006 63.675L75.2982 61.4603L76.731 60.0275L78.1638 61.4603L78.2613 63.675H75.2006ZM76.7312 55.6075L67.7899 47.7838V44.6999C70.3896 46.3532 73.4653 47.2996 76.7312 47.2996C79.9971 47.2996 83.073 46.3532 85.6727 44.6999V47.7838L76.7312 55.6075ZM84.9684 61.3325C84.6476 61.8135 84.1855 61.9263 83.9389 61.9506C83.6916 61.9751 83.2165 61.9551 82.8079 61.5463L79.0887 57.8271L88.7181 49.4012L91.2406 51.9237L84.9684 61.3325Z" fill="#EC405D"/>
<path d="M51.1001 62.3601L43.232 58.9258L38.931 54.6247C38.6429 54.3364 38.2725 54.1817 37.8954 54.1577V51.6227C41.5712 49.2072 44.2611 45.3655 45.1254 40.7878C45.5487 40.8067 45.976 40.7661 46.3971 40.6666C48.459 40.1787 49.9554 38.2027 49.9554 35.9683V34.7936C49.9554 33.1612 49.1454 31.6927 47.8905 30.8311C48.2596 29.3689 48.4478 27.8729 48.4478 26.3671C48.4478 19.6914 44.8392 13.8114 39.4 10.4353C39.342 4.86373 34.5863 0.347656 28.7462 0.347656C22.906 0.347656 18.1504 4.86373 18.0924 10.4353C12.6533 13.8114 9.04475 19.6916 9.04475 26.3671C9.04475 27.8684 9.23167 29.3601 9.59862 30.8183C8.34435 31.6755 7.53717 33.1508 7.53717 34.8112V35.9683C7.53717 38.2027 9.03358 40.1787 11.0955 40.6666C11.5166 40.7663 11.9437 40.8067 12.3671 40.7878C13.2315 45.3655 15.9216 49.2072 19.5974 51.6227V54.1577C19.2203 54.1817 18.8499 54.3364 18.5618 54.6247L14.2608 58.9258L6.3929 62.3601C2.38967 64.1076 -0.175601 68.2138 0.00938203 72.578L0.960937 95.0279C0.997676 95.8937 1.71118 96.5712 2.56971 96.5712C2.5927 96.5712 2.6159 96.5707 2.6391 96.5697C3.52835 96.5321 4.21844 95.7807 4.18084 94.8915L3.22907 72.4413C3.16784 70.9948 3.54382 69.5912 4.25067 68.3831L8.47992 73.4582C9.81648 75.062 10.5523 77.0949 10.5523 79.1823V94.9598C10.5523 95.8497 11.2738 96.5712 12.1637 96.5712C13.0536 96.5712 13.775 95.8497 13.775 94.9598V79.1823C13.775 76.3425 12.7736 73.577 10.9556 71.3952L6.4595 65.9998C6.84171 65.7364 7.24799 65.5031 7.68219 65.3136L14.5392 62.3203L19.3849 70.1856C19.8633 70.9623 20.6544 71.4889 21.5555 71.6307C21.7175 71.6563 21.8799 71.6687 22.0417 71.6687C22.7784 71.6687 23.496 71.4077 24.0649 70.9221L27.1355 68.3021V94.9596C27.1355 95.8495 27.8569 96.5709 28.7468 96.5709C29.6367 96.5709 30.3582 95.8495 30.3582 94.9596V68.3025L33.4285 70.9226C33.9974 71.4081 34.715 71.6692 35.4517 71.6692C35.6133 71.6692 35.7759 71.6565 35.9379 71.6311C36.839 71.4893 37.6301 70.9627 38.1085 70.1861L42.9542 62.3206L49.8112 65.3138C50.2452 65.5033 50.6517 65.7366 51.0339 66L46.5378 71.3954C44.7198 73.577 43.7184 76.3427 43.7184 79.1826V94.96C43.7184 95.8499 44.4398 96.5714 45.3297 96.5714C46.2196 96.5714 46.9411 95.8499 46.9411 94.96V79.1826C46.9411 77.0951 47.6772 75.0622 49.0135 73.4584L53.2427 68.3833C53.9496 69.5914 54.3256 70.995 54.2643 72.4415L53.3128 94.8917C53.2752 95.7807 53.9653 96.5321 54.8545 96.5699C54.8777 96.5709 54.9007 96.5714 54.9239 96.5714C55.7824 96.5714 56.496 95.8942 56.5327 95.0281L57.4842 72.5782C57.669 68.214 55.1035 64.1076 51.1001 62.3601ZM28.7466 3.57035C32.1747 3.57035 35.067 5.75727 35.9223 8.72044C33.6977 7.88082 31.2773 7.41911 28.7466 7.41911C26.2159 7.41911 23.7955 7.88082 21.5709 8.72044C22.4262 5.75727 25.3183 3.57035 28.7466 3.57035ZM15.5217 40.1237C15.2377 38.5761 13.8027 37.4521 12.2589 37.5664C12.122 37.576 11.9806 37.5644 11.838 37.5305C11.2235 37.385 10.7601 36.7134 10.7601 35.9683V34.8112C10.7601 34.0637 11.2596 33.3904 11.8971 33.2785C12.435 33.1839 12.95 33.3816 13.2757 33.8063C13.5716 34.1922 13.9662 34.4681 14.4172 34.6043C15.077 34.8037 15.8051 34.6866 16.3641 34.2915C17.3565 33.5911 18.2339 32.7373 18.9722 31.7541C19.5065 31.0426 19.3628 30.0323 18.6512 29.4982C17.9394 28.9639 16.9294 29.1076 16.3951 29.8192C16.0296 30.3058 15.6182 30.7482 15.1657 31.1412C14.4763 30.5516 13.6309 30.1825 12.7341 30.0706C12.4254 28.8569 12.2674 27.6158 12.2674 26.3673C12.2674 17.6965 19.6599 10.642 28.7466 10.642C37.8331 10.642 45.2255 17.6963 45.2255 26.3673C45.2255 27.6134 45.0685 28.852 44.7608 30.0635C44.3367 30.0972 43.9057 30.1666 43.5068 30.2702L42.2955 29.2742C41.6868 28.7736 40.9207 28.5231 40.1453 28.5692C37.7768 28.7091 25.647 29.0294 19.4238 21.5816C18.8531 20.8988 17.8371 20.8077 17.1541 21.3783C16.4711 21.949 16.3803 22.9652 16.9509 23.648C20.0202 27.3212 24.5219 29.805 30.3307 31.0305C34.7782 31.9688 38.7318 31.8777 40.2808 31.7894L42.1706 33.3433C42.6908 33.7711 43.4202 33.8315 44.0026 33.4925C44.2759 33.3436 45.1912 33.2013 45.5906 33.281C46.2422 33.4106 46.7333 34.0607 46.7333 34.7936V35.9683C46.7333 36.7136 46.2699 37.3853 45.6554 37.5305C45.513 37.5642 45.3714 37.5765 45.2346 37.5662C43.6915 37.454 42.2557 38.5761 41.9715 40.1235C40.7993 46.5055 35.2375 51.1376 28.7468 51.1376C22.2559 51.1376 16.6939 46.5055 15.5217 40.1237ZM22.0651 68.3923L17.2186 60.5255L19.7013 58.0427L26.3741 64.7154L22.0651 68.3923ZM28.7466 62.5302L22.8203 56.6039V53.2704C24.6703 53.9746 26.6695 54.3603 28.7466 54.3603C30.8237 54.3603 32.8229 53.9746 34.6729 53.2706V56.6039L28.7466 62.5302ZM35.4281 68.3923L31.1191 64.7154L37.7918 58.0427L40.2746 60.5255L35.4281 68.3923Z" fill="#EC405D"/>
<path d="M22.7111 78.2734H18.1886C17.2987 78.2734 16.5773 78.9949 16.5773 79.8848C16.5773 80.7747 17.2987 81.4961 18.1886 81.4961H22.7111C23.601 81.4961 24.3225 80.7747 24.3225 79.8848C24.3225 78.9949 23.601 78.2734 22.7111 78.2734Z" fill="#EC405D"/>
</svg>
