<svg width="34" height="32" viewBox="0 0 34 32" fill="none" xmlns="http://www.w3.org/2000/svg">
<path d="M29.7719 0C28.5629 0 27.4093 0.511875 26.6064 1.40688L4.33584 26.4422L0 30.72L1.29736 32H4.42927L7.19915 29.2672L32.5769 7.29281C33.4812 6.50187 34 5.36375 34 4.17156C34 1.87125 32.1034 0 29.7719 0V0ZM16.6133 14.5812L17.5755 13.5003L20.3175 16.2053L19.2216 17.1547L16.6133 14.5812ZM18.2442 18L6.78454 27.9231L5.69813 26.8512L15.7558 15.5444L18.2442 18ZM18.4323 12.5356L19.3942 11.4547L22.3899 14.4103L21.2943 15.3594L18.4323 12.5356ZM20.252 10.4909L21.2139 9.41L24.463 12.6156L23.3674 13.5647L20.252 10.4909ZM3.89209 30.72H1.83455L4.80936 27.785L5.83813 28.8L3.89209 30.72ZM31.7179 6.33281L25.4395 11.7697L22.0707 8.44594L27.5794 2.25406C28.1346 1.63469 28.9338 1.28 29.7719 1.28C31.3885 1.28 32.7026 2.57656 32.7026 4.17156C32.7026 4.99844 32.3431 5.78687 31.7179 6.33281Z" fill="white"/>
</svg>
