<svg width="29" height="34" viewBox="0 0 29 34" fill="none" xmlns="http://www.w3.org/2000/svg">
<path d="M24.0066 24.5744H22.852C22.7896 23.2443 22.4539 21.9413 21.8659 20.7465C21.2779 19.5518 20.4502 18.4909 19.4344 17.63L17.4907 15.98L20.1807 13.6963C21.022 12.9834 21.6978 12.0956 22.161 11.0949C22.6242 10.0941 22.8637 9.00442 22.8629 7.90167V0.622025C22.8628 0.561302 22.8508 0.501187 22.8275 0.445113C22.8042 0.389039 22.77 0.338104 22.727 0.295216C22.6841 0.252327 22.633 0.218325 22.5769 0.195152C22.5208 0.171979 22.4607 0.160087 22.3999 0.160157H7.06601C7.00524 0.160122 6.94506 0.172065 6.88892 0.195304C6.83277 0.218542 6.78175 0.25262 6.73878 0.295589C6.69581 0.338558 6.66173 0.389576 6.63849 0.445724C6.61526 0.501872 6.60331 0.562051 6.60335 0.622818V7.90167C6.60244 9.0044 6.84191 10.0941 7.30507 11.0948C7.76823 12.0956 8.44396 12.9833 9.2852 13.6963L11.9752 15.9797L10.0315 17.6297C9.01562 18.4906 8.18788 19.5515 7.59989 20.7463C7.01191 21.9411 6.67628 23.2442 6.61392 24.5744H5.45965C4.52753 24.5743 3.61634 24.8507 2.84129 25.3685C2.06623 25.8863 1.46214 26.6224 1.1054 27.4835C0.748659 28.3447 0.655292 29.2922 0.837107 30.2065C1.01892 31.1207 1.46775 31.9604 2.12684 32.6196C2.78592 33.2787 3.62566 33.7276 4.53987 33.9094C5.45407 34.0913 6.40167 33.998 7.26283 33.6413C8.124 33.2846 8.86006 32.6805 9.37792 31.9055C9.89578 31.1305 10.1722 30.2193 10.1722 29.2872V25.0381C10.1714 24.1464 10.3649 23.2652 10.7393 22.4559C11.1137 21.6465 11.66 20.9285 12.3401 20.3518L14.733 18.3205L17.1248 20.3507C17.8049 20.9275 18.3512 21.6455 18.7255 22.4548C19.0999 23.2641 19.2935 24.1453 19.2927 25.0371V29.2872C19.2927 30.2193 19.5691 31.1304 20.0869 31.9054C20.6047 32.6804 21.3407 33.2844 22.2017 33.6412C23.0628 33.9979 24.0104 34.0913 24.9245 33.9095C25.8387 33.7278 26.6784 33.279 27.3376 32.62C27.9967 31.961 28.4457 31.1214 28.6276 30.2073C28.8096 29.2931 28.7164 28.3456 28.3599 27.4844C28.0033 26.6232 27.3994 25.8871 26.6246 25.3692C25.8497 24.8512 24.9386 24.5746 24.0066 24.5744ZM11.5951 10.9759C11.1488 10.5976 10.7903 10.1266 10.5446 9.59568C10.2989 9.06477 10.1718 8.48669 10.1722 7.90167V6.96789H19.2932V7.90167C19.2937 8.48665 19.1667 9.0647 18.921 9.59561C18.6754 10.1265 18.317 10.5975 17.8709 10.9759L14.733 13.6395L11.5951 10.9759ZM10.2155 6.04256C10.3239 5.47582 10.6263 4.96453 11.0708 4.59655C11.5152 4.22857 12.074 4.02688 12.651 4.02615H16.8149C17.392 4.02688 17.9507 4.22857 18.3952 4.59655C18.8396 4.96453 19.142 5.47582 19.2504 6.04256H10.2155ZM21.9375 7.90167C21.9382 8.87021 21.7279 9.82728 21.3211 10.7062C20.9142 11.5852 20.3208 12.365 19.5819 12.9912L16.7758 15.3733L16.6198 15.2411L15.4468 14.2462L18.4689 11.6817C19.0177 11.2166 19.4585 10.6373 19.7605 9.98441C20.0626 9.33148 20.2187 8.62056 20.218 7.90114V1.08548H21.9365L21.9375 7.90167ZM19.2938 4.17923C18.9766 3.83915 18.5929 3.56792 18.1664 3.38241C17.74 3.19689 17.28 3.10105 16.8149 3.10083H12.651C12.186 3.10098 11.726 3.19674 11.2996 3.38216C10.8731 3.56759 10.4894 3.83871 10.1722 4.1787V1.08548H19.2932L19.2938 4.17923ZM11.7421 19.6448C10.9592 20.3085 10.3305 21.1348 9.89954 22.0662C9.46861 22.9977 9.24588 24.0118 9.24686 25.0381V29.2883C9.24665 30.0373 9.02434 30.7695 8.60803 31.3922C8.19171 32.0149 7.6001 32.5002 6.908 32.7867C6.21589 33.0732 5.45438 33.148 4.71974 33.0018C3.9851 32.8555 3.31034 32.4946 2.78077 31.9649C2.25119 31.4351 1.8906 30.7602 1.74457 30.0255C1.59855 29.2909 1.67365 28.5294 1.96039 27.8374C2.24713 27.1454 2.73262 26.5539 3.35548 26.1378C3.97834 25.7217 4.71059 25.4997 5.45965 25.4997H7.06601C7.12678 25.4998 7.18696 25.4878 7.2431 25.4646C7.29925 25.4413 7.35027 25.4073 7.39324 25.3643C7.43621 25.3213 7.47029 25.2703 7.49352 25.2142C7.51676 25.158 7.52871 25.0978 7.52867 25.0371C7.5276 23.7617 7.80454 22.5014 8.34021 21.344C8.87588 20.1866 9.6574 19.1599 10.6304 18.3353L12.6901 16.5867L14.0191 17.7148L11.7421 19.6448ZM24.0063 33.0752C23.0022 33.0741 22.0396 32.6747 21.3296 31.9647C20.6196 31.2547 20.2202 30.2921 20.2191 29.288V25.0381C20.22 24.0118 19.9972 22.9976 19.5663 22.0662C19.1353 21.1348 18.5065 20.3085 17.7236 19.6448L15.033 17.3616L13.4304 16.0017L9.88401 12.9912C9.14518 12.365 8.5517 11.5852 8.14488 10.7062C7.73807 9.82728 7.5277 8.87021 7.52841 7.90167V1.08548H9.24686V7.90167C9.24615 8.62109 9.40227 9.33201 9.70435 9.98494C10.0064 10.6379 10.4472 11.2171 10.996 11.6823L14.4329 14.5999L14.6063 14.7469L18.8356 18.3353C19.8087 19.16 20.5904 20.1869 21.1261 21.3445C21.6618 22.5021 21.9387 23.7626 21.9375 25.0381C21.9377 25.1606 21.9866 25.278 22.0732 25.3646C22.1599 25.4511 22.2774 25.4997 22.3999 25.4997H24.0063C25.0053 25.5081 25.9605 25.9108 26.664 26.6201C27.3674 27.3295 27.7621 28.288 27.7621 29.2871C27.7621 30.2861 27.3674 31.2446 26.664 31.954C25.9605 32.6634 25.0053 33.0661 24.0063 33.0744V33.0752Z" fill="white"/>
<path d="M24.0065 26.6895C23.4927 26.6895 22.9904 26.8418 22.5632 27.1273C22.136 27.4127 21.803 27.8185 21.6064 28.2932C21.4098 28.7679 21.3584 29.2902 21.4586 29.7941C21.5589 30.2981 21.8063 30.7609 22.1697 31.1242C22.533 31.4875 22.9959 31.7349 23.4998 31.8351C24.0038 31.9353 24.5261 31.8838 25.0008 31.6872C25.4755 31.4905 25.8812 31.1575 26.1666 30.7303C26.452 30.303 26.6043 29.8008 26.6042 29.287C26.6035 28.5983 26.3295 27.938 25.8425 27.451C25.3555 26.964 24.6952 26.6902 24.0065 26.6895ZM24.0065 30.9594C23.5631 30.9589 23.1381 30.7825 22.8247 30.469C22.5112 30.1556 22.3348 29.7306 22.3343 29.2872C22.3343 28.9564 22.4324 28.6331 22.6162 28.358C22.7999 28.083 23.0612 27.8686 23.3668 27.7421C23.6724 27.6155 24.0087 27.5824 24.3331 27.6469C24.6575 27.7115 24.9555 27.8708 25.1894 28.1047C25.4233 28.3386 25.5826 28.6367 25.6471 28.9611C25.7116 29.2856 25.6784 29.6218 25.5518 29.9274C25.4252 30.233 25.2108 30.4942 24.9357 30.678C24.6606 30.8617 24.3373 30.9597 24.0065 30.9597V30.9594Z" fill="white"/>
<path d="M5.45959 26.6895C4.9458 26.6895 4.44355 26.8418 4.01635 27.1273C3.58914 27.4127 3.25618 27.8184 3.05956 28.2931C2.86294 28.7678 2.8115 29.2901 2.91173 29.794C3.01197 30.298 3.25938 30.7608 3.62269 31.1241C3.98599 31.4874 4.44887 31.7349 4.95279 31.8351C5.45671 31.9353 5.97904 31.8839 6.45372 31.6873C6.9284 31.4906 7.33412 31.1577 7.61957 30.7305C7.90502 30.3033 8.05737 29.801 8.05737 29.2872C8.05667 28.5985 7.78275 27.9381 7.29573 27.4511C6.8087 26.9641 6.14835 26.6902 5.45959 26.6895ZM5.45959 30.9594C5.1288 30.9594 4.80544 30.8613 4.5304 30.6775C4.25536 30.4938 4.041 30.2325 3.91442 29.9269C3.78785 29.6213 3.75474 29.285 3.8193 28.9606C3.88385 28.6362 4.04316 28.3382 4.27708 28.1043C4.51101 27.8704 4.80904 27.7111 5.13348 27.6466C5.45792 27.5821 5.7942 27.6153 6.0998 27.7419C6.4054 27.8685 6.66658 28.0829 6.85032 28.358C7.03406 28.6331 7.1321 28.9564 7.13205 29.2872C7.1317 29.7307 6.9554 30.156 6.64184 30.4696C6.32829 30.7833 5.9031 30.9597 5.45959 30.9602V30.9594Z" fill="white"/>
</svg>
