<svg width="31" height="31" viewBox="0 0 31 31" fill="none" xmlns="http://www.w3.org/2000/svg">
<path d="M31 15.5005C31 6.93916 24.0613 0.000488281 15.5 0.000488281C6.93867 0.000488281 0 6.93916 0 15.5005C0 24.0618 6.93867 31.0005 15.5 31.0005C15.5908 31.0005 15.6816 31.0005 15.7725 30.9944V18.9335H12.4424V15.0524H15.7725V12.1946C15.7725 8.88271 17.7947 7.07842 20.7494 7.07842C22.1662 7.07842 23.3832 7.18135 23.7344 7.22979V10.6931H21.7C20.0955 10.6931 19.7807 11.456 19.7807 12.5761V15.0464H23.6254L23.1229 18.9274H19.7807V30.4011C26.2592 28.5423 31 22.5784 31 15.5005Z" fill="white"/>
</svg>
