<svg width="32" height="31" viewBox="0 0 32 31" fill="none" xmlns="http://www.w3.org/2000/svg">
<path d="M23.2 0.0722656C20.416 0.0722656 17.744 1.40968 16 3.52313C14.256 1.40968 11.584 0.0722656 8.8 0.0722656C3.872 0.0722656 0 4.06801 0 9.15349C0 15.3948 5.44 20.4803 13.68 28.2076L16 30.3705L18.32 28.1911C26.56 20.4803 32 15.3948 32 9.15349C32 4.06801 28.128 0.0722656 23.2 0.0722656ZM16.16 25.7474L16 25.9125L15.84 25.7474C8.224 18.631 3.2 13.9253 3.2 9.15349C3.2 5.85123 5.6 3.37453 8.8 3.37453C11.264 3.37453 13.664 5.00915 14.512 7.2712H17.504C18.336 5.00915 20.736 3.37453 23.2 3.37453C26.4 3.37453 28.8 5.85123 28.8 9.15349C28.8 13.9253 23.776 18.631 16.16 25.7474Z" fill="#EC405D"/>
</svg>
