<svg width="31" height="31" viewBox="0 0 31 31" fill="none" xmlns="http://www.w3.org/2000/svg">
<path d="M18.4668 15.5005C18.4668 17.139 17.1385 18.4673 15.5 18.4673C13.8615 18.4673 12.5332 17.139 12.5332 15.5005C12.5332 13.8619 13.8615 12.5337 15.5 12.5337C17.1385 12.5337 18.4668 13.8619 18.4668 15.5005Z" fill="white"/>
<path d="M22.4383 10.2513C22.2956 9.86488 22.0681 9.51508 21.7725 9.22795C21.4854 8.93231 21.1358 8.70479 20.7491 8.56217C20.4355 8.44037 19.9644 8.29539 19.0966 8.25589C18.1579 8.21308 17.8764 8.20386 15.5 8.20386C13.1233 8.20386 12.8418 8.21284 11.9033 8.25565C11.0356 8.29539 10.5642 8.44037 10.2508 8.56217C9.86414 8.70479 9.51434 8.93231 9.22746 9.22795C8.93182 9.51508 8.70429 9.86464 8.56144 10.2513C8.43964 10.5649 8.29465 11.0363 8.25516 11.9041C8.21235 12.8426 8.20312 13.124 8.20312 15.5007C8.20312 17.8772 8.21235 18.1586 8.25516 19.0973C8.29465 19.9651 8.43964 20.4362 8.56144 20.7498C8.70429 21.1365 8.93158 21.4861 9.22722 21.7732C9.51434 22.0689 9.86391 22.2964 10.2506 22.439C10.5642 22.561 11.0356 22.706 11.9033 22.7455C12.8418 22.7883 13.123 22.7973 15.4997 22.7973C17.8767 22.7973 18.1581 22.7883 19.0964 22.7455C19.9641 22.706 20.4355 22.561 20.7491 22.439C21.5253 22.1396 22.1388 21.5261 22.4383 20.7498C22.5601 20.4362 22.705 19.9651 22.7448 19.0973C22.7876 18.1586 22.7966 17.8772 22.7966 15.5007C22.7966 13.124 22.7876 12.8426 22.7448 11.9041C22.7053 11.0363 22.5603 10.5649 22.4383 10.2513ZM15.5 20.0708C12.9757 20.0708 10.9294 18.0247 10.9294 15.5005C10.9294 12.9762 12.9757 10.9301 15.5 10.9301C18.024 10.9301 20.0703 12.9762 20.0703 15.5005C20.0703 18.0247 18.024 20.0708 15.5 20.0708ZM20.251 11.8175C19.6611 11.8175 19.1829 11.3393 19.1829 10.7494C19.1829 10.1596 19.6611 9.68134 20.251 9.68134C20.8409 9.68134 21.3191 10.1596 21.3191 10.7494C21.3189 11.3393 20.8409 11.8175 20.251 11.8175Z" fill="white"/>
<path d="M15.5 0.000488281C6.9409 0.000488281 0 6.94138 0 15.5005C0 24.0596 6.9409 31.0005 15.5 31.0005C24.0591 31.0005 31 24.0596 31 15.5005C31 6.94138 24.0591 0.000488281 15.5 0.000488281ZM24.3467 19.17C24.3037 20.1174 24.153 20.7643 23.933 21.3305C23.4707 22.5261 22.5256 23.4712 21.33 23.9335C20.764 24.1535 20.1169 24.3039 19.1697 24.3472C18.2206 24.3905 17.9174 24.4009 15.5002 24.4009C13.0829 24.4009 12.7799 24.3905 11.8305 24.3472C10.8833 24.3039 10.2362 24.1535 9.67023 23.9335C9.07612 23.71 8.53829 23.3598 8.09365 22.9068C7.64097 22.4624 7.2907 21.9244 7.06719 21.3305C6.84724 20.7645 6.69658 20.1174 6.65353 19.1702C6.60978 18.2208 6.59961 17.9176 6.59961 15.5005C6.59961 13.0833 6.60978 12.7801 6.6533 11.831C6.69634 10.8836 6.84676 10.2367 7.06672 9.67049C7.29022 9.07661 7.64073 8.53854 8.09365 8.09414C8.53806 7.64122 9.07612 7.29095 9.67 7.06744C10.2362 6.84749 10.8831 6.69707 11.8305 6.65379C12.7796 6.6105 13.0829 6.6001 15.5 6.6001C17.9171 6.6001 18.2204 6.6105 19.1695 6.65402C20.1169 6.69707 20.7638 6.84749 21.33 7.06721C21.9239 7.29071 22.4619 7.64122 22.9066 8.09414C23.3593 8.53878 23.7098 9.07661 23.933 9.67049C24.1532 10.2367 24.3037 10.8836 24.3469 11.831C24.3902 12.7801 24.4004 13.0833 24.4004 15.5005C24.4004 17.9176 24.3902 18.2208 24.3467 19.17Z" fill="white"/>
</svg>
