<svg width="24" height="24" viewBox="0 0 24 24" fill="none" xmlns="http://www.w3.org/2000/svg">
<mask id="path-1-inside-1" fill="white">
<path d="M18.5 18.5005L24 11.0005V24.0005H12L18.5 18.5005Z"/>
</mask>
<path d="M18.5 18.5005L26.2513 27.6611L27.3363 26.743L28.1769 25.5969L18.5 18.5005ZM24 11.0005H36V-25.6552L14.3231 3.90412L24 11.0005ZM24 24.0005V36.0005H36V24.0005H24ZM12 24.0005L4.24869 14.8399L-20.7593 36.0005H12V24.0005ZM28.1769 25.5969L33.6769 18.0969L14.3231 3.90412L8.82314 11.4041L28.1769 25.5969ZM12 11.0005V24.0005H36V11.0005H12ZM24 12.0005H12V36.0005H24V12.0005ZM19.7513 33.1611L26.2513 27.6611L10.7487 9.33985L4.24869 14.8399L19.7513 33.1611Z" fill="white" mask="url(#path-1-inside-1)"/>
<circle cx="12" cy="12.0005" r="10" stroke="white" stroke-width="4"/>
<circle cx="12" cy="12.0005" r="3" stroke="white" stroke-width="4"/>
</svg>
