<svg width="106" height="106" viewBox="0 0 106 106" fill="none" xmlns="http://www.w3.org/2000/svg">
<path d="M105.127 13.2098C105.064 13.1506 92.6131 1.27639 92.6131 1.27639C92.1371 0.819685 91.6448 0.347656 90.7256 0.347656H40.5995C39.1354 0.347656 37.9441 1.5387 37.9441 3.00282V11.1563L20.2772 14.1847C18.8611 14.4332 17.9088 15.7884 18.1541 17.203L19.0507 22.4309C13.3084 24.3634 7.41276 26.3554 1.7213 28.3998C0.376428 28.8915 -0.329337 30.3869 0.150558 31.7398L11.472 63.2117C11.6997 63.845 12.2966 64.2394 12.9332 64.2394C13.1075 64.2394 13.2852 64.2098 13.4587 64.1473C14.2657 63.857 14.6845 62.9676 14.3942 62.1606L3.24028 31.1541C8.60235 29.2344 14.1553 27.3554 19.5822 25.5287L24.9176 56.634L31.0568 92.4568C31.2786 93.7213 32.3901 94.6211 33.6447 94.6211C33.7867 94.6211 33.9308 94.6095 34.0753 94.5857L50.7032 91.7322L63.6964 89.5049L44.1546 96.5289L28.7443 102.07L16.7763 68.7814C16.4863 67.9744 15.5971 67.5556 14.7899 67.8457C13.9829 68.1357 13.564 69.0251 13.8541 69.8321L25.9918 103.593C26.38 104.655 27.3858 105.315 28.4489 105.315C28.7427 105.315 29.041 105.264 29.3317 105.158L45.2049 99.4513L81.2476 86.4966L88.1332 85.3163H103.344C104.808 85.3163 105.999 84.1226 105.999 82.6552V14.9594C105.999 14.0301 105.495 13.556 105.127 13.2098ZM101.013 13.5775H93.2433L93.0508 13.5783C92.6787 13.5808 91.8077 13.5872 91.5868 13.3678C91.5359 13.3171 91.4763 13.1477 91.4763 12.8332L91.4583 4.46611L101.013 13.5775ZM102.894 82.2104H41.0496V51.9495C41.0496 51.092 40.3544 50.3968 39.4968 50.3968C38.6393 50.3968 37.9441 51.092 37.9441 51.9495V82.6547C37.9441 84.122 39.1354 85.3159 40.5995 85.3159H69.7518L50.1781 88.671L34.0335 91.4417L27.9783 56.1089L21.2976 17.1604L37.9439 14.3069V44.7448C37.9439 45.6024 38.6391 46.2976 39.4966 46.2976C40.3541 46.2976 41.0493 45.6024 41.0493 44.7448V3.4529H88.3505L88.3708 12.8367C88.3708 13.9742 88.7168 14.8942 89.3989 15.5716C90.4471 16.6124 91.9289 16.6848 92.8487 16.6848C92.9278 16.6848 93.0027 16.6842 93.0729 16.6838L102.894 16.6832V82.2104Z" fill="#EC405D"/>
<path d="M48.5345 24.457C48.5345 25.3145 49.2298 26.0097 50.0873 26.0097H94.482C95.3395 26.0097 96.0347 25.3145 96.0347 24.457C96.0347 23.5995 95.3395 22.9043 94.482 22.9043H50.0873C49.2298 22.9043 48.5345 23.5995 48.5345 24.457Z" fill="#EC405D"/>
<path d="M94.482 33.9355H50.0873C49.2298 33.9355 48.5345 34.6308 48.5345 35.4883C48.5345 36.3458 49.2298 37.041 50.0873 37.041H94.482C95.3395 37.041 96.0347 36.3458 96.0347 35.4883C96.0347 34.6308 95.3395 33.9355 94.482 33.9355Z" fill="#EC405D"/>
<path d="M94.482 44.9668H50.0873C49.2298 44.9668 48.5345 45.662 48.5345 46.5195C48.5345 47.377 49.2298 48.0722 50.0873 48.0722H94.482C95.3395 48.0722 96.0347 47.377 96.0347 46.5195C96.0347 45.662 95.3395 44.9668 94.482 44.9668Z" fill="#EC405D"/>
<path d="M94.482 55.998H50.0873C49.2298 55.998 48.5345 56.6933 48.5345 57.5508C48.5345 58.4083 49.2298 59.1035 50.0873 59.1035H94.482C95.3395 59.1035 96.0347 58.4083 96.0347 57.5508C96.0347 56.6933 95.3395 55.998 94.482 55.998Z" fill="#EC405D"/>
<path d="M94.482 67.0293H50.0873C49.2298 67.0293 48.5345 67.7245 48.5345 68.582C48.5345 69.4395 49.2298 70.1347 50.0873 70.1347H94.482C95.3395 70.1347 96.0347 69.4395 96.0347 68.582C96.0347 67.7245 95.3395 67.0293 94.482 67.0293Z" fill="#EC405D"/>
</svg>
