<svg width="35" height="40" viewBox="0 0 35 40" fill="none" xmlns="http://www.w3.org/2000/svg">
<path d="M11.116 11.5797V2.10821C11.116 0.945707 10.1703 0 9.00782 0H3.64146C2.47903 0 1.53325 0.945707 1.53325 2.10821V11.5797C0.649483 11.8307 0 12.6445 0 13.6076C0 14.7701 0.945783 15.7158 2.10821 15.7158H4.21643V30.8183C4.21643 30.8426 4.21842 30.8666 4.22141 30.8901L2.87668 37.6477C2.79795 38.0432 2.89945 38.4488 3.15527 38.7606C3.41109 39.0723 3.78911 39.2511 4.19243 39.2511H8.45693C8.86025 39.2511 9.23827 39.0723 9.49409 38.7606C9.74992 38.4489 9.85142 38.0432 9.77269 37.6477L8.42795 30.8902C8.43086 30.8666 8.43293 30.8427 8.43293 30.8183V23.0494C8.43293 22.7318 8.17558 22.4744 7.85797 22.4744C7.54035 22.4744 7.283 22.7318 7.283 23.0494V29.9736C6.97804 29.8654 6.65452 29.8082 6.32472 29.8082C5.99492 29.8082 5.6714 29.8654 5.36644 29.9736V15.7158H7.283V20.8255C7.283 21.143 7.54035 21.4004 7.85797 21.4004C8.17558 21.4004 8.43293 21.143 8.43293 20.8255V15.7158H10.5411C11.7035 15.7158 12.6493 14.7701 12.6493 13.6076C12.6493 12.6445 11.9998 11.8307 11.116 11.5797ZM7.33429 31.2864L8.64491 37.8722C8.66024 37.9495 8.62658 38.005 8.60504 38.0311C8.58358 38.0573 8.53582 38.1013 8.45685 38.1013H4.19243C4.11355 38.1013 4.06579 38.0573 4.04424 38.0311C4.02278 38.005 3.98905 37.9495 4.00438 37.8722L5.315 31.2864C5.60731 31.0738 5.95973 30.9582 6.32464 30.9582C6.68956 30.9582 7.04197 31.0737 7.33429 31.2864ZM3.64146 1.14994H9.00782C9.53626 1.14994 9.9661 1.57978 9.9661 2.10821V11.4994H2.68318V2.10821C2.68318 1.57978 3.11303 1.14994 3.64146 1.14994ZM10.5411 14.5658H2.10821C1.57978 14.5658 1.14994 14.136 1.14994 13.6076C1.14994 13.0791 1.57978 12.6493 2.10821 12.6493H10.5411C11.0695 12.6493 11.4994 13.0791 11.4994 13.6076C11.4994 14.136 11.0695 14.5658 10.5411 14.5658Z" fill="white"/>
<path d="M30.6455 14.9046C30.2646 14.2857 29.5768 13.9012 28.85 13.9012H28.3652V12.5687C29.2489 12.3177 29.8984 11.5039 29.8984 10.5408C29.8984 9.37832 28.9526 8.43262 27.7902 8.43262H19.3574C18.1949 8.43262 17.2491 9.37832 17.2491 10.5408C17.2491 11.5039 17.8986 12.3177 18.7824 12.5687V13.9012H18.2976C17.5709 13.9012 16.8829 14.2857 16.5021 14.9045C14.2324 18.5928 13.0327 22.8314 13.0327 27.1621V34.8429C13.0327 37.2735 15.0101 39.251 17.4408 39.251H29.7068C32.1374 39.251 34.1149 37.2735 34.1149 34.8429V27.1621C34.1149 22.8314 32.9152 18.5928 30.6455 14.9046ZM19.9323 12.6491H24.0184C24.336 12.6491 24.5933 12.3917 24.5933 12.0742C24.5933 11.7566 24.336 11.4992 24.0184 11.4992H19.3574C18.8289 11.4992 18.3991 11.0693 18.3991 10.5409C18.3991 10.0125 18.8289 9.58263 19.3574 9.58263H27.7902C28.3186 9.58263 28.7485 10.0125 28.7485 10.5409C28.7485 11.0693 28.3186 11.4992 27.7902 11.4992H26.1649C25.8473 11.4992 25.5899 11.7566 25.5899 12.0742C25.5899 12.3917 25.8473 12.6491 26.1649 12.6491H27.2152V13.9012H19.9323V12.6491ZM32.9649 34.8429C32.9649 36.6395 31.5034 38.101 29.7068 38.101H17.4408C15.6442 38.101 14.1826 36.6395 14.1826 34.8429V27.1621C14.1826 23.0444 15.3234 19.0142 17.4814 15.5073C17.6545 15.2261 17.9672 15.0513 18.2976 15.0513H28.85C29.1803 15.0513 29.493 15.226 29.6661 15.5073C31.8242 19.0142 32.9649 23.0444 32.9649 27.1621V34.8429Z" fill="white"/>
<path d="M23.5737 19.1016C19.4522 19.1016 16.0991 22.4546 16.0991 26.5761C16.0991 30.6977 19.4522 34.0507 23.5737 34.0507C27.6952 34.0507 31.0483 30.6977 31.0483 26.5761C31.0483 22.4546 27.6952 19.1016 23.5737 19.1016ZM23.5737 32.9008C20.0863 32.9008 17.2491 30.0636 17.2491 26.5761C17.2491 23.0887 20.0863 20.2515 23.5737 20.2515C27.0611 20.2515 29.8983 23.0887 29.8983 26.5761C29.8983 30.0636 27.0611 32.9008 23.5737 32.9008Z" fill="white"/>
</svg>
