<svg width="96" height="97" viewBox="0 0 96 97" fill="none" xmlns="http://www.w3.org/2000/svg">
<path d="M63 63.3477C61.9651 63.3477 61.125 64.1877 61.125 65.2227C61.125 66.2576 61.9651 67.0977 63 67.0977C64.0349 67.0977 64.875 66.2576 64.875 65.2227C64.875 64.1877 64.0349 63.3477 63 63.3477Z" fill="#EC405D"/>
<path d="M37.5001 61.4727C36.4659 61.4727 35.6251 60.6318 35.6251 59.5977C35.6251 58.5635 36.4659 57.7227 37.5001 57.7227C38.1644 57.7227 38.8653 58.0618 39.5281 58.7026C40.2723 59.4226 41.4595 59.4036 42.1795 58.6587C42.8995 57.9146 42.8797 56.728 42.1356 56.0081C41.1842 55.0867 40.232 54.5659 39.3751 54.2817V52.0977C39.3751 51.062 38.5357 50.2227 37.5001 50.2227C36.4644 50.2227 35.6251 51.062 35.6251 52.0977V54.2949C33.4425 55.0691 31.8751 57.1536 31.8751 59.5977C31.8751 62.6995 34.3983 65.2227 37.5001 65.2227C38.5335 65.2227 39.3751 66.0635 39.3751 67.0977C39.3751 68.1318 38.5335 68.9727 37.5001 68.9727C36.6988 68.9727 35.8338 68.4688 35.0648 67.554C34.399 66.7615 33.2161 66.6589 32.4237 67.3254C31.6304 67.9919 31.5286 69.1748 32.1944 69.9673C33.1971 71.1597 34.3756 71.9902 35.6251 72.4092V74.5977C35.6251 75.6333 36.4644 76.4727 37.5001 76.4727C38.5357 76.4727 39.3751 75.6333 39.3751 74.5977V72.4004C41.557 71.6262 43.1251 69.5417 43.1251 67.0977C43.1251 63.9958 40.6019 61.4727 37.5001 61.4727Z" fill="#EC405D"/>
<path d="M22.5 31.4727C23.5356 31.4727 24.375 30.6333 24.375 29.5977V22.0977C24.375 21.062 23.5356 20.2227 22.5 20.2227C21.4644 20.2227 20.625 21.062 20.625 22.0977V29.5977C20.625 30.6333 21.4644 31.4727 22.5 31.4727Z" fill="#EC405D"/>
<path d="M88.5 44.5977V29.5977C88.5 24.4282 84.2944 20.2227 79.125 20.2227H68.625V5.97266C68.625 2.87085 66.1018 0.347656 63 0.347656H28.125C25.0232 0.347656 22.5 2.87085 22.5 5.97266V12.7227H16.875C13.7732 12.7227 11.25 15.2458 11.25 18.3477V20.2227H9.375C4.20557 20.2227 0 24.4282 0 29.5977V86.9727C0 92.1421 4.20557 96.3477 9.375 96.3477H66.75C71.2771 96.3477 75.0652 93.1221 75.936 88.8477H79.125C84.2944 88.8477 88.5 84.6421 88.5 79.4727V74.5977H90.375C93.4768 74.5977 96 72.0745 96 68.9727V52.0977C96 47.9624 92.6353 44.5977 88.5 44.5977ZM92.25 52.0977C92.25 54.1689 90.5713 55.8477 88.5 55.8477V48.3477C90.5676 48.3477 92.25 50.03 92.25 52.0977ZM79.125 23.9727C82.2268 23.9727 84.75 26.4958 84.75 29.5977V55.8477H76.125V44.5977C76.125 40.0706 72.8994 36.2825 68.625 35.4116V23.9727H79.125ZM26.25 5.97266C26.25 4.93848 27.0908 4.09766 28.125 4.09766H63C64.0342 4.09766 64.875 4.93848 64.875 5.97266V35.2227H56.25V18.3477C56.25 15.2458 53.7268 12.7227 50.625 12.7227H26.25V5.97266ZM45 35.2227V16.4727H50.625C51.6592 16.4727 52.5 17.3135 52.5 18.3477V35.2227H45ZM33.75 35.2227V16.4727H41.25V35.2227H33.75ZM15 18.3477C15 17.3135 15.8408 16.4727 16.875 16.4727H30V35.2227H15V18.3477ZM9.375 23.9727H11.25V35.2227H9.77637C6.67749 35.2227 3.75 32.9785 3.75 29.5977C3.75 26.4958 6.27319 23.9727 9.375 23.9727ZM66.75 92.5977H9.375C6.27319 92.5977 3.75 90.0745 3.75 86.9727V36.9819C5.42651 38.2307 7.53223 38.9727 9.77637 38.9727H66.75C69.8518 38.9727 72.375 41.4958 72.375 44.5977V55.8477H59.25C56.1482 55.8477 53.625 58.3708 53.625 61.4727V68.9727C53.625 72.0745 56.1482 74.5977 59.25 74.5977H72.375V86.9727C72.375 90.0745 69.8518 92.5977 66.75 92.5977ZM84.75 79.4727C84.75 82.5745 82.2268 85.0977 79.125 85.0977H76.125V74.5977H84.75V79.4727ZM90.375 70.8477H59.25C58.2158 70.8477 57.375 70.0068 57.375 68.9727V61.4727C57.375 60.4385 58.2158 59.5977 59.25 59.5977H88.5C89.8381 59.5977 91.1221 59.2476 92.25 58.5935V68.9727C92.25 70.0068 91.4092 70.8477 90.375 70.8477Z" fill="#EC405D"/>
<path d="M79.125 63.3477H70.5C69.4644 63.3477 68.625 64.187 68.625 65.2227C68.625 66.2583 69.4644 67.0977 70.5 67.0977H79.125C80.1606 67.0977 81 66.2583 81 65.2227C81 64.187 80.1606 63.3477 79.125 63.3477Z" fill="#EC405D"/>
</svg>
