<svg width="94" height="95" viewBox="0 0 94 95" fill="none" xmlns="http://www.w3.org/2000/svg">
<path d="M92.7732 1.57241C92.7686 1.56801 92.7636 1.56415 92.7592 1.55975C91.9817 0.789201 90.9102 0.347656 89.8166 0.347656H89.8111C88.8657 0.347656 87.9404 0.672618 87.206 1.26177C77.2095 9.2463 67.1761 17.4879 57.3833 25.7569C55.0021 27.7675 52.6189 29.7938 50.2378 31.8314L23.0515 4.64542C20.367 1.96127 15.9993 1.96164 13.315 4.64542L0.403311 17.5573C-0.134437 18.0952 -0.134437 18.9669 0.403311 19.5046C0.941059 20.0422 1.81295 20.0422 2.35051 19.5046L11.3678 10.4876L13.3383 12.4581L4.32122 21.4752C3.78347 22.0131 3.78347 22.8848 4.32122 23.4225C4.59 23.6913 4.9425 23.8257 5.29482 23.8257C5.64714 23.8257 5.99964 23.6913 6.26842 23.4225L15.2857 14.4055L17.2562 16.376L8.23894 25.3931C7.70119 25.931 7.70119 26.8027 8.23894 27.3404C8.50772 27.6092 8.86022 27.7436 9.21254 27.7436C9.56486 27.7436 9.91736 27.6092 10.1861 27.3404L19.2034 18.3232L21.1739 20.2937L12.1568 29.3108C11.6191 29.8487 11.6191 30.7204 12.1568 31.2582C12.4256 31.527 12.7781 31.6613 13.1304 31.6613C13.4828 31.6613 13.8353 31.527 14.104 31.2582L23.1211 22.2411L25.0916 24.2116L16.0746 33.2287C15.5368 33.7666 15.5368 34.6383 16.0746 35.1761C16.3433 35.4449 16.6959 35.5793 17.0482 35.5793C17.4005 35.5793 17.753 35.4449 18.0218 35.1761L27.0388 26.159L29.0093 28.1295L19.9923 37.1466C19.4545 37.6845 19.4545 38.5562 19.9923 39.094C20.2611 39.3628 20.6136 39.4972 20.9659 39.4972C21.3182 39.4972 21.6707 39.3628 21.9395 39.094L30.9565 30.0769L32.9271 32.0474L23.91 41.0645C23.3723 41.6024 23.3723 42.4741 23.91 43.0119C24.1788 43.2807 24.5313 43.4151 24.8836 43.4151C25.2359 43.4151 25.5884 43.2807 25.8572 43.0119L34.8743 33.9948L36.845 35.9655L27.8279 44.9826C27.2902 45.5205 27.2902 46.3922 27.8279 46.93C28.0967 47.1988 28.4492 47.3332 28.8015 47.3332C29.1538 47.3332 29.5063 47.1988 29.7751 46.93L38.7924 37.9127L40.8323 39.9527C36.6043 43.6346 32.3981 47.3385 28.2394 51.0469C28.2375 51.0469 28.2375 51.0469 28.2375 51.0489C27.0021 52.1477 25.6545 53.4134 24.3251 54.6123C23.5107 55.2015 23.6658 56.2371 24.0699 56.6412C24.0699 56.6412 24.0699 56.643 24.0718 56.643C25.3973 58.2477 26.1299 60.2966 26.1299 62.4151C26.1299 64.8918 25.177 67.2087 23.4459 68.9382C23.4284 68.9556 19.311 73.0733 19.293 73.0911C13.305 79.2186 2.75993 75.0372 2.75387 66.359C2.75754 61.0904 7.01271 56.7389 12.3887 56.735C15.3169 56.7369 18.0506 58.0404 19.8884 60.3078C20.3868 60.9221 21.3021 60.9885 21.8822 60.462C21.8896 60.4565 21.8951 60.451 21.9024 60.4436L21.9153 60.4324C22.5602 59.8526 22.5147 58.8078 21.7941 58.2917C19.4404 55.5525 16.0164 53.9811 12.3979 53.9811H12.3795C5.49512 53.9811 -0.00794048 59.5872 0.000137677 66.359C-0.00592094 71.4619 3.11243 75.9691 7.72561 77.8429C10.4648 78.9522 13.4655 79.0285 16.1761 78.1596C13.5926 86.1966 19.6055 94.348 27.9627 94.348H27.9774C34.8063 94.348 40.3718 88.8196 40.3643 81.9627C40.368 78.7039 39.1122 75.6287 36.8338 73.3006C36.8351 73.2991 39.6453 70.1044 39.6453 70.1044C44.6061 64.5842 49.513 59.039 54.3604 53.4803L56.4351 55.5549L47.418 64.5719C46.8802 65.1099 46.8802 65.9816 47.418 66.5193C47.687 66.7881 48.0395 66.9225 48.3918 66.9225C48.7441 66.9225 49.0966 66.7881 49.3656 66.5193L58.3826 57.5023L60.3531 59.4728L51.3361 68.4898C50.7983 69.0278 50.7983 69.8995 51.3361 70.4372C51.6051 70.706 51.9576 70.8404 52.3099 70.8404C52.6622 70.8404 53.0147 70.706 53.2837 70.4372L62.3007 61.4202L64.271 63.3905L55.254 72.4076C54.7162 72.9455 54.7162 73.8172 55.254 74.3549C55.523 74.6237 55.8755 74.7581 56.2278 74.7581C56.5801 74.7581 56.9326 74.6237 57.2016 74.3549L66.2186 65.3379L68.189 67.3082L59.1719 76.3255C58.6341 76.8634 58.6341 77.7351 59.1719 78.2729C59.4409 78.5416 59.7934 78.676 60.1457 78.676C60.498 78.676 60.8505 78.5416 61.1195 78.2729L70.1365 69.2556L72.107 71.2261L63.09 80.2432C62.5522 80.7811 62.5522 81.6528 63.09 82.1906C63.359 82.4594 63.7114 82.5938 64.0638 82.5938C64.4161 82.5938 64.7686 82.4594 65.0376 82.1906L74.0546 73.1735L76.0249 75.1439L67.0079 84.1609C66.4701 84.6988 66.4701 85.5706 67.0079 86.1083C67.2769 86.3771 67.6294 86.5115 67.9817 86.5115C68.334 86.5115 68.6865 86.3771 68.9555 86.1083L77.9725 77.0912L79.9429 79.0616L70.9258 88.0786C70.388 88.6166 70.388 89.4883 70.9258 90.026C71.1948 90.2948 71.5473 90.4292 71.8996 90.4292C72.2519 90.4292 72.6044 90.2948 72.8734 90.026L81.8904 81.009L83.8608 82.9793L74.8437 91.9964C74.306 92.5343 74.306 93.406 74.8437 93.9437C75.1127 94.2125 75.4652 94.3469 75.8175 94.3469C76.1698 94.3469 76.5223 94.2125 76.7913 93.9437L86.7806 83.9542C86.781 83.9538 86.7816 83.9533 86.7821 83.9529C86.7827 83.9525 86.783 83.952 86.7834 83.9514L89.7029 81.0319C91.0033 79.7315 91.7195 78.0026 91.7195 76.1635C91.7195 74.3245 91.0033 72.5956 89.7031 71.2952L62.4867 44.0808C73.0441 31.7649 83.2788 19.4117 93.0851 7.13882C94.4158 5.47343 94.2814 3.08046 92.7732 1.57241ZM13.3151 8.54019L15.2623 6.59299C16.8728 4.9825 19.4936 4.9825 21.1043 6.59299L48.1419 33.6308C46.3976 35.1293 44.6547 36.6318 42.9153 38.1408L13.3151 8.54019ZM87.7552 73.2438C88.5354 74.0239 88.9652 75.0612 88.9652 76.1646C88.9652 77.2681 88.5354 78.3054 87.7552 79.0854L85.808 81.0327C84.8981 80.1231 58.1265 53.3514 56.1729 51.3979C57.6839 49.6587 59.1897 47.9184 60.6882 46.1771L87.7552 73.2438ZM38.3631 67.4081C37.6958 66.8972 35.9164 66.0126 35.6204 63.5003C35.5378 62.8065 34.9521 62.2849 34.2563 62.2849C33.4244 62.2849 32.7905 63.0073 32.8848 63.8236C32.8867 63.8236 32.8867 63.8236 32.8867 63.8236C33.1492 66.0688 34.3683 68.0536 36.2299 69.267C36.3272 69.3314 36.4245 69.3973 36.5255 69.4708C35.5705 70.5604 34.7821 71.4778 33.8781 72.4762C33.6266 72.7553 33.498 73.1315 33.5274 73.506C33.555 73.8805 33.7404 74.233 34.0323 74.4699C36.3432 76.3563 37.6084 79.0713 37.6106 81.9626C37.6067 87.2692 33.3317 91.5902 27.972 91.5939C22.6746 91.5869 18.3335 87.3175 18.3335 81.9626C18.3398 77.6046 21.0961 75.2707 21.3077 74.9713L25.3927 70.8863C27.6432 68.6358 28.8845 65.5911 28.8845 62.4151C28.8863 60.0944 28.2217 57.8527 26.9661 55.9362C28.0442 54.9503 28.9818 54.0755 30.0707 53.105L30.0762 53.0976C59.9312 26.4779 88.5733 3.59526 89.1116 3.287C88.7424 3.65621 35.0182 57.3572 34.7704 57.6365C34.2655 58.2056 34.3187 59.0777 34.886 59.5807C35.4563 60.0886 36.3296 60.0291 36.8303 59.4651C36.995 59.2774 90.6655 5.62655 91.0589 5.23311C90.9464 5.4312 68.771 33.5193 38.3631 67.4081Z" fill="#EC405D"/>
<path d="M17.2613 61.4986C12.918 57.1555 5.50717 60.285 5.50754 66.3658C5.50754 68.2038 6.22411 69.9324 7.52524 71.2333C8.8675 72.5754 10.63 73.2461 12.3932 73.2461C14.1559 73.2461 15.9192 72.575 17.2613 71.2333C19.9485 68.5466 19.9489 64.1855 17.2613 61.4986ZM15.3142 69.2857C13.7036 70.8957 11.0829 70.896 9.47226 69.2857C6.89276 66.7064 8.69896 62.2381 12.3932 62.2381C16.0982 62.2383 17.882 66.7183 15.3142 69.2857Z" fill="#EC405D"/>
<path d="M27.9656 75.0801C25.1344 75.0801 22.7023 76.7056 21.6183 79.3226C20.5291 81.9524 21.096 84.8295 23.0978 86.8309C24.4273 88.1601 26.1401 88.857 27.9088 88.857C28.8024 88.857 29.7105 88.6789 30.5899 88.3147C33.2177 87.226 34.8502 84.7922 34.8502 81.9632C34.85 78.168 31.7618 75.0801 27.9656 75.0801ZM29.5357 85.7706C28.3038 86.2806 26.4772 86.3157 25.0446 84.8835C23.6113 83.4503 23.6493 81.6157 24.1624 80.3764C24.6715 79.1472 25.938 77.8338 27.9654 77.8338C30.2431 77.8338 32.0961 79.6863 32.0961 81.9632C32.0961 83.9883 30.7735 85.2578 29.5357 85.7706Z" fill="#EC405D"/>
</svg>
