<svg width="30" height="30" viewBox="0 0 30 30" fill="none" xmlns="http://www.w3.org/2000/svg">
<path d="M15 30C23.2843 30 30 23.2843 30 15C30 6.7157 23.2843 -2.99305e-05 15 -2.92062e-05C6.7157 -2.8482e-05 -3.25532e-05 6.7157 -3.18289e-05 15C-3.11047e-05 23.2843 6.7157 30 15 30ZM15 1.87497C22.2487 1.87497 28.125 7.75123 28.125 15C28.125 22.2487 22.2487 28.125 15 28.125C7.75123 28.125 1.87497 22.2487 1.87497 15C1.87497 7.75123 7.75123 1.87497 15 1.87497Z" fill="white"/>
<path d="M12.8533 23.1563L20.3533 15.6562C20.7169 15.2906 20.7169 14.7001 20.3533 14.3344L12.8533 6.83436L11.5315 8.16561L18.3658 15L11.5315 21.8344L12.8533 23.1563Z" fill="white"/>
</svg>
