<svg width="29" height="36" viewBox="0 0 29 36" fill="none" xmlns="http://www.w3.org/2000/svg">
<path d="M26.7104 13.3974L23.4596 11.0988C23.5235 11.0122 23.5617 10.9056 23.5617 10.7899C23.5617 10.5019 23.3283 10.2685 23.0403 10.2685H22.6411V6.07795C22.6411 5.62901 22.2759 5.26377 21.8269 5.26377H21.5699V4.03401C21.5699 3.53668 21.1652 3.13196 20.6678 3.13196H20.3037V2.78069H24.566C25.0661 2.78069 25.4731 2.37373 25.4731 1.87363C25.473 0.840532 24.6325 0 23.5994 0H22.0692C21.7812 0 21.5478 0.233369 21.5478 0.521379C21.5478 0.809388 21.7812 1.04276 22.0692 1.04276H23.5994C24.0113 1.04276 24.3542 1.34411 24.4192 1.73793H19.7823C19.4942 1.73793 19.2609 1.9713 19.2609 2.25931V3.13196H18.5657V1.39034C18.5657 1.19868 18.7216 1.04276 18.9133 1.04276H19.9846C20.2726 1.04276 20.5059 0.809388 20.5059 0.521379C20.5059 0.233369 20.2726 0 19.9846 0H18.9133C18.1467 0 17.523 0.623708 17.523 1.39034V3.13196H17.1589C16.6616 3.13196 16.2568 3.53662 16.2568 4.03401V5.26377H15.9998C15.5508 5.26377 15.1856 5.62901 15.1856 6.07795V10.2685H14.7865C14.4985 10.2685 14.2651 10.5019 14.2651 10.7899C14.2651 10.9056 14.3033 11.0122 14.3671 11.0988L11.1163 13.3974C9.95949 14.2154 9.2689 15.5495 9.2689 16.9662V18.3904V22.7703C9.01072 22.4834 8.87078 22.3582 8.3608 21.8442C8.15711 21.6406 7.82705 21.6406 7.62343 21.8442C7.28739 22.2238 6.15203 23.1032 5.31136 24.8705C3.75279 23.8897 2.38142 23.8319 2.00471 23.7373C1.86832 23.7136 1.72838 23.7446 1.61521 23.8241C1.50196 23.9035 1.42501 24.0247 1.40116 24.1609C1.34909 24.5924 1.03842 25.6045 1.24155 27.0809C0.990316 27.0795 0.772241 27.0804 0.522326 27.0801C0.234317 27.0801 0.000947992 27.3135 0.000947992 27.6015C0.0334125 28.0154 -0.170133 29.4607 0.634875 31.2613C0.752567 31.5247 1.06122 31.6419 1.32358 31.5245C1.58649 31.407 1.70433 31.0986 1.58677 30.8358C0.971547 29.4594 1.05087 28.1978 1.0437 28.1229C1.14388 28.136 2.75424 27.9889 4.47521 29.0456C4.5669 31.0881 5.35356 33.0046 6.72193 34.5213C5.1708 34.3734 3.71587 33.6493 2.66151 32.4831C2.46839 32.2696 2.13874 32.2531 1.92504 32.446C1.71149 32.6391 1.69487 32.9689 1.88799 33.1825C3.27277 34.7142 5.25046 35.5928 7.31387 35.5928H8.67015C9.74329 35.5928 10.7632 35.3604 11.6822 34.9433C12.4157 35.3685 13.2467 35.5928 14.1019 35.5928H23.7248C26.3897 35.5928 28.5578 33.4247 28.5578 30.7598V16.9662C28.5578 15.5495 27.8671 14.2154 26.7104 13.3974ZM17.2996 4.17471H20.5271V5.26377H17.2996V4.17471ZM16.2283 6.30653H21.5983V10.2685H16.2283V6.30653ZM10.3116 18.9118H23.1365C23.4245 18.9118 23.6579 18.6784 23.6579 18.3904C23.6579 18.1024 23.4245 17.869 23.1365 17.869H10.3116V16.9662C10.3116 15.8874 10.8374 14.8717 11.7182 14.2489L15.8726 11.3113H21.9539L26.1083 14.2489C26.9891 14.8717 27.5149 15.8874 27.5149 16.9662V17.869H25.2211C24.9331 17.869 24.6998 18.1024 24.6998 18.3904C24.6998 18.6784 24.9331 18.9118 25.2211 18.9118H27.5149V26.9495H14.7592C14.9258 25.5507 14.6373 24.5969 14.5829 24.1608C14.5331 23.8773 14.2629 23.6882 13.9793 23.7373C13.6108 23.8298 12.232 23.8891 10.6727 24.8705C10.5626 24.6392 10.4419 24.4128 10.3115 24.1913V18.9118H10.3116ZM9.26181 34.5219C10.6305 33.0051 11.4173 31.0884 11.509 29.0456C12.4931 28.4414 13.6195 28.1229 14.7838 28.1229H14.9406V28.2796C14.9405 31.5376 12.4428 34.2228 9.26181 34.5219ZM13.6743 27.1642C12.9106 27.2805 12.173 27.5173 11.4841 27.8664C11.4241 27.176 11.2846 26.5021 11.0693 25.8556C12.3141 25.0139 13.5727 24.8745 13.6458 24.8543C13.6559 24.9588 13.8944 25.9056 13.6743 27.1642ZM7.77707 23.1651L7.99201 22.9501L8.20696 23.1651C11.1831 26.1412 11.2784 31.0476 8.20696 34.119L7.99201 34.334L7.77707 34.1189C4.75947 31.1016 4.74487 26.1972 7.77707 23.1651ZM2.33825 24.8543C2.44329 24.8832 3.64142 24.9948 4.9147 25.8556C4.6994 26.502 4.55988 27.1759 4.49989 27.8664C3.81104 27.5173 3.0734 27.2805 2.30968 27.1642C2.09105 25.914 2.32894 24.9513 2.33825 24.8543ZM23.7247 34.55H14.1019C13.6508 34.55 13.2084 34.4704 12.7922 34.3171C16.309 31.9084 15.9631 28.0722 15.9834 27.9923H27.5151V30.7598C27.515 32.8497 25.8147 34.55 23.7247 34.55Z" fill="white"/>
<path d="M19.4758 8.65625H18.3505C18.0625 8.65625 17.8291 8.88962 17.8291 9.17763C17.8291 9.46564 18.0625 9.69901 18.3505 9.69901H19.4758C19.7638 9.69901 19.9972 9.46564 19.9972 9.17763C19.9972 8.88962 19.7638 8.65625 19.4758 8.65625Z" fill="white"/>
<path d="M15.7069 21.448H22.1197C22.4077 21.448 22.6411 21.2147 22.6411 20.9267C22.6411 20.6386 22.4077 20.4053 22.1197 20.4053H15.7069C15.4189 20.4053 15.1855 20.6386 15.1855 20.9267C15.1855 21.2147 15.419 21.448 15.7069 21.448Z" fill="white"/>
<path d="M15.7069 23.4519H22.1197C22.4077 23.4519 22.6411 23.2186 22.6411 22.9306C22.6411 22.6425 22.4077 22.4092 22.1197 22.4092H15.7069C15.4189 22.4092 15.1855 22.6425 15.1855 22.9306C15.1855 23.2186 15.419 23.4519 15.7069 23.4519Z" fill="white"/>
<path d="M15.7069 25.4558H22.1197C22.4077 25.4558 22.6411 25.2225 22.6411 24.9345C22.6411 24.6465 22.4077 24.4131 22.1197 24.4131H15.7069C15.4189 24.4131 15.1855 24.6465 15.1855 24.9345C15.1855 25.2225 15.419 25.4558 15.7069 25.4558Z" fill="white"/>
</svg>
