<svg width="97" height="97" viewBox="0 0 97 97" fill="none" xmlns="http://www.w3.org/2000/svg">
<path d="M95.397 77.1548H87.3707C103.292 55.9734 99.028 25.8956 77.8466 9.97415C69.5274 3.72078 59.4003 0.342063 48.9927 0.347663C22.4807 0.347663 0.988281 21.8401 0.988281 48.3521C0.988281 74.8642 22.4807 96.3566 48.9927 96.3566H95.397C96.2807 96.3566 96.9972 95.6401 96.9972 94.7564V78.7549C96.9972 77.8712 96.2807 77.1548 95.397 77.1548ZM65.143 90.1304C64.5628 90.3544 63.9759 90.5678 63.3829 90.7704C63.2453 90.8168 63.1076 90.8648 62.9684 90.9097C62.3518 91.1135 61.7305 91.3027 61.1043 91.4777C60.9794 91.5129 60.8562 91.5497 60.7314 91.5833C60.0914 91.7577 59.4513 91.9145 58.8032 92.0634C58.6816 92.0906 58.5632 92.121 58.4416 92.1466C57.8015 92.2874 57.1423 92.409 56.4862 92.5194C56.3614 92.5418 56.2366 92.5674 56.1102 92.5882C55.4701 92.6906 54.8301 92.7754 54.174 92.8506C54.03 92.8666 53.8892 92.8906 53.7452 92.905C53.1051 92.9738 52.4651 93.0202 51.825 93.065C51.665 93.0747 51.5178 93.0923 51.3626 93.1003C50.5795 93.1377 49.7896 93.1563 48.9927 93.1563C24.2598 93.1281 4.21678 73.085 4.18858 48.3521C4.16678 23.6074 24.2086 3.53036 48.9531 3.50856C73.6976 3.48675 93.7751 23.5286 93.7969 48.2731C93.8067 59.3363 89.7229 70.0121 82.3318 78.2445C82.1718 78.4189 82.0118 78.5901 81.8518 78.7613C81.4965 79.1454 81.1381 79.5246 80.7701 79.8958C80.6277 80.0398 80.4805 80.1791 80.3348 80.3215C79.9428 80.7055 79.5492 81.0879 79.1427 81.4592C79.0371 81.5536 78.9283 81.6448 78.8227 81.7408C77.4904 82.9299 76.0888 84.0392 74.6255 85.0627C74.4031 85.2227 74.1855 85.3827 73.9614 85.5316C73.6638 85.7316 73.3566 85.9204 73.0542 86.114C72.7005 86.3396 72.3501 86.5668 71.9901 86.7829C71.7372 86.9349 71.478 87.0773 71.2204 87.2245C70.7963 87.4677 70.3723 87.7046 69.9403 87.9382C69.7211 88.055 69.4986 88.1654 69.2794 88.2774C68.7994 88.5238 68.3081 88.7575 67.8169 88.9927C67.6281 89.0807 67.4376 89.1655 67.2488 89.2503C66.7144 89.4887 66.1751 89.7191 65.6327 89.9368L65.143 90.1304ZM93.7969 93.1563H66.2135C66.3031 93.1211 66.3895 93.0795 66.4792 93.0443C67.164 92.7754 67.8409 92.4922 68.5097 92.1946L69.0938 91.9289C69.7137 91.6431 70.3249 91.3433 70.9276 91.0297C71.1308 90.9257 71.3356 90.8248 71.5372 90.7096C72.1997 90.3566 72.8531 89.987 73.4974 89.6007C73.6174 89.5287 73.7406 89.4647 73.8606 89.3927C74.5679 88.9623 75.2624 88.511 75.9408 88.0454C76.2801 87.815 76.6113 87.5653 76.9457 87.3301C77.2802 87.0949 77.6482 86.8245 77.9922 86.562C78.3651 86.2804 78.7299 85.9892 79.0947 85.6964C79.3859 85.4612 79.6724 85.2163 79.9572 84.9811C80.3364 84.6611 80.7125 84.341 81.0773 84.0082C81.3269 83.7842 81.5669 83.5522 81.8118 83.3233C82.646 82.5393 83.4551 81.7254 84.2392 80.8815C84.3288 80.7855 84.4232 80.6927 84.5112 80.5951C84.5992 80.4975 84.676 80.4399 84.756 80.3551H93.7969V93.1563Z" fill="#EC405D"/>
<path d="M88.9905 38.7743C88.1302 31.7569 81.7442 26.7656 74.727 27.6257C73.3405 27.7957 71.9911 28.1913 70.7326 28.7972C70.7214 28.7972 70.7102 28.7972 70.7006 28.8068C70.691 28.8164 70.6526 28.8372 70.627 28.8484C69.5751 29.3574 68.5978 30.0083 67.7227 30.783L67.6379 30.8598C65.8712 32.4493 64.5819 34.4995 63.9144 36.7803V36.7947C63.7678 37.3054 63.6546 37.8248 63.5752 38.3501C63.556 38.4637 63.5384 38.5757 63.5224 38.6893C63.4467 39.2404 63.4065 39.7956 63.4023 40.3519C63.4103 47.4185 69.1369 53.1451 76.2035 53.1531C76.7474 53.1495 77.2904 53.1111 77.8293 53.0378H77.8421C84.8593 52.1778 89.8506 45.7916 88.9905 38.7743ZM76.1537 49.9528C75.9809 49.9528 75.8113 49.9368 75.6401 49.9272C75.4945 49.9192 75.3457 49.9176 75.2016 49.9032C75.0192 49.884 74.8416 49.8503 74.6624 49.8199C74.5248 49.7975 74.3872 49.7831 74.2527 49.7559C74.0735 49.7191 73.9007 49.6663 73.7247 49.6199C73.5951 49.5847 73.4623 49.5575 73.3359 49.5175C73.1662 49.4647 73.0046 49.3975 72.8414 49.3367C72.7118 49.2887 72.5806 49.2471 72.4542 49.1927C72.2942 49.1271 72.1486 49.0471 71.9949 48.9719C71.8701 48.9095 71.7405 48.8551 71.6173 48.7878C71.4941 48.7206 71.3389 48.6182 71.1997 48.5334C71.0605 48.4486 70.9468 48.3862 70.8268 48.3046C70.7068 48.223 70.5804 48.1206 70.4556 48.0278C70.3308 47.935 70.2076 47.8486 70.0892 47.751C69.9708 47.6533 69.8683 47.5509 69.7579 47.4501C69.6475 47.3493 69.5195 47.2437 69.4091 47.1301C69.2987 47.0165 69.2139 46.9141 69.1147 46.8101C69.0155 46.7061 68.8938 46.5764 68.7946 46.4516C68.6954 46.3268 68.6234 46.2212 68.537 46.1076C68.4506 45.994 68.3354 45.8484 68.2442 45.7124C68.153 45.5764 68.0842 45.4579 68.0122 45.3315C67.9402 45.2051 67.841 45.0627 67.7641 44.9219C67.6873 44.7811 67.6377 44.6611 67.5753 44.5299C67.5129 44.3986 67.4249 44.2354 67.3609 44.0834C67.2969 43.9314 67.2601 43.8082 67.2089 43.6706C67.1577 43.533 67.0873 43.3633 67.0377 43.2033C66.9881 43.0433 66.9433 42.8401 66.8969 42.6577C66.8665 42.5329 66.8281 42.4129 66.8025 42.2864C66.7609 42.0832 66.7353 41.8752 66.7081 41.6672C66.6921 41.5568 66.668 41.448 66.6568 41.336C66.5838 40.6345 66.5914 39.9268 66.6792 39.227L66.6744 39.2222C66.684 39.1422 66.7 39.0621 66.7113 38.9853C66.7549 38.6747 66.8147 38.3665 66.8905 38.0621C66.9033 38.0067 66.9177 37.9506 66.9337 37.894C67.5501 35.6048 68.9849 33.6212 70.966 32.3191C74.3884 36.9624 76.2247 42.5843 76.2033 48.3526C76.2033 48.8807 76.1857 49.4087 76.1537 49.9528ZM79.3748 49.4039C79.3876 49.0519 79.4036 48.7014 79.4036 48.3526C79.3936 42.1588 77.4956 36.1153 73.9631 31.0278C79.0934 29.7703 84.2717 32.9096 85.5292 38.0399C85.7146 38.7965 85.807 39.573 85.8042 40.3519C85.7972 44.4272 83.2204 48.055 79.3748 49.4039Z" fill="#EC405D"/>
<path d="M61.8056 21.1501C61.8074 14.0802 56.0775 8.3475 49.0076 8.3457C41.9378 8.3439 36.205 14.0738 36.2032 21.1437C36.2016 27.7381 41.2099 33.2548 47.7739 33.8887H47.7707C47.9051 33.9015 48.0443 33.8999 48.1788 33.9095C48.4524 33.9271 48.7244 33.9511 49.0012 33.9511H49.0348C55.8129 33.9447 61.411 28.6558 61.8024 21.8892C61.8006 21.8114 61.793 21.7337 61.78 21.6571C61.78 21.4877 61.8056 21.3213 61.8056 21.1501ZM58.4069 23.0815C58.3321 23.4335 58.2381 23.7813 58.1253 24.1232C58.0517 24.3504 57.9653 24.5744 57.8805 24.7936C57.7508 25.1111 57.6046 25.4215 57.442 25.7233C57.3252 25.9361 57.1956 26.1394 57.0644 26.3426C56.9332 26.5458 56.8148 26.709 56.6819 26.8866C56.4761 27.162 56.2555 27.4259 56.0211 27.6771C55.8611 27.8371 55.7011 27.9971 55.541 28.1571C55.3282 28.3556 55.109 28.546 54.8786 28.7236C54.6482 28.9012 54.3985 29.0756 54.1585 29.234C53.9985 29.3413 53.8257 29.4453 53.6529 29.5413C53.3074 29.7331 52.9506 29.9029 52.584 30.0501C52.4335 30.1109 52.2783 30.1653 52.1231 30.2181C51.7109 30.3633 51.289 30.48 50.8606 30.567C50.7566 30.5878 50.6494 30.5974 50.5406 30.615C50.0551 30.6966 49.5639 30.741 49.0716 30.7478H49.0172C48.4614 30.747 47.9065 30.6972 47.3595 30.599L47.2827 30.5878C43.3553 29.8531 40.292 26.765 39.5892 22.8318C45.6751 20.601 52.3543 20.5982 58.4421 22.8238C58.4309 22.9103 58.4245 22.9967 58.4069 23.0815ZM39.5604 19.4859C40.3714 14.9039 44.348 11.5608 49.0012 11.5492C53.6485 11.5542 57.625 14.8871 58.4421 19.4619C52.3023 17.4834 45.6949 17.4918 39.5604 19.4859Z" fill="#EC405D"/>
<path d="M48.9965 40.3516C44.5779 40.3516 40.9958 43.9337 40.9958 48.3523C40.9958 52.7709 44.5779 56.353 48.9965 56.353C53.4129 56.3478 56.9921 52.7687 56.9973 48.3523C56.9973 43.9337 53.4151 40.3516 48.9965 40.3516ZM48.9965 53.1527C46.3453 53.1527 44.1961 51.0035 44.1961 48.3523C44.1961 45.7011 46.3453 43.5519 48.9965 43.5519C51.6478 43.5519 53.797 45.7011 53.797 48.3523C53.797 51.0035 51.6478 53.1527 48.9965 53.1527Z" fill="#EC405D"/>
<path d="M36.1359 39.1994C36.1359 39.1274 36.1263 39.0554 36.1183 38.985C36.0751 38.5785 36.0159 38.1849 35.9343 37.7849L35.9215 37.7272C35.7633 36.9864 35.5401 36.2607 35.2542 35.559C35.2126 35.4566 35.171 35.3526 35.1262 35.2502C34.6748 34.2169 34.0877 33.2482 33.3805 32.3699C33.286 32.2531 33.19 32.1395 33.0924 32.0275C32.7342 31.6119 32.3494 31.2202 31.9403 30.8546C31.7723 30.6946 31.6059 30.549 31.4283 30.4066C31.2042 30.2258 30.9754 30.0545 30.737 29.8881C30.401 29.6529 30.0537 29.4321 29.6953 29.2289C29.5081 29.1216 29.3161 29.0224 29.1225 28.9248C28.6914 28.7092 28.2486 28.5178 27.7959 28.352C27.7159 28.3232 27.6455 28.28 27.5639 28.2528C27.5375 28.2464 27.5109 28.2416 27.4839 28.2384C20.7991 25.956 13.5298 29.5249 11.2474 36.2099C8.96499 42.8947 12.5339 50.164 19.2189 52.4464C19.9928 52.7106 20.7903 52.9 21.6002 53.0121L21.7298 53.0329C22.2808 53.1085 22.8361 53.1487 23.3923 53.1529H23.4259C30.4926 53.1449 36.2191 47.4183 36.2271 40.3517C36.2271 39.9611 36.1695 39.5818 36.1359 39.1994ZM18.6255 48.3522C18.6255 48.4578 18.6255 48.5714 18.6255 48.6723C15.6402 46.9647 13.7962 43.7906 13.7914 40.3515C13.7966 35.0512 18.092 30.7558 23.3923 30.7506C23.674 30.7506 23.9524 30.7682 24.2292 30.7922C20.5893 35.9247 18.6313 42.06 18.6255 48.3522ZM30.1862 47.1349C28.3904 48.9335 25.9548 49.9468 23.4131 49.9524C22.8957 49.9522 22.379 49.9084 21.869 49.8212C21.8386 49.3139 21.8258 48.8275 21.8258 48.3538C21.8326 42.3275 23.8402 36.4741 27.5335 31.7123L27.7863 31.8243C27.9624 31.9155 28.132 32.0163 28.3016 32.1155C28.7082 32.3537 29.0969 32.6212 29.4649 32.9156L29.5001 32.9428C29.7347 33.138 29.9599 33.3428 30.1754 33.5573C33.9277 37.3036 33.9325 43.3826 30.1862 47.1349Z" fill="#EC405D"/>
<path d="M76.0015 64.2477C75.6252 63.6128 75.1946 63.0118 74.7145 62.4511C74.7049 62.4335 74.7017 62.4335 74.6921 62.4143C74.6313 62.3439 74.5625 62.2831 74.5001 62.2127C74.2873 61.9775 74.0713 61.7471 73.8425 61.5279C73.7337 61.4238 73.6216 61.3246 73.5096 61.2238C73.2936 61.0318 73.0728 60.8446 72.844 60.6654C72.7192 60.5694 72.5943 60.475 72.4679 60.3838C72.2343 60.2237 71.9975 60.0637 71.7543 59.9037C71.6247 59.8221 71.495 59.7437 71.3638 59.6653C71.1078 59.5181 70.8438 59.3821 70.5766 59.2508C70.4502 59.19 70.3253 59.126 70.1957 59.0684C69.9109 58.9404 69.6181 58.8284 69.322 58.7212C69.2036 58.678 69.0868 58.63 68.9668 58.5916C68.6468 58.4892 68.3267 58.4044 68.0067 58.326C67.8963 58.2988 67.7875 58.2652 67.6755 58.2412C67.3363 58.1675 66.9906 58.1163 66.6418 58.0699C66.5426 58.0571 66.445 58.0363 66.3458 58.0251C65.8961 57.9777 65.4443 57.9537 64.992 57.9531C57.9254 57.9611 52.1989 63.6877 52.1909 70.7543C52.1937 71.2766 52.2289 71.7982 52.2965 72.3161C52.3109 72.4361 52.3317 72.5529 52.3509 72.6713C52.4157 73.1021 52.5023 73.5294 52.6101 73.9514C52.6325 74.0378 52.6533 74.1242 52.6773 74.2106C52.9681 75.2463 53.3892 76.241 53.9302 77.1709C53.9446 77.1949 53.9542 77.2205 53.967 77.2445C53.9798 77.2685 53.9926 77.2717 54.0022 77.2877C57.6032 83.3627 65.4469 85.3683 71.5218 81.7673C77.5968 78.1664 79.6024 70.3225 76.0015 64.2477ZM61.1339 61.9537C62.3506 61.4226 63.6643 61.1502 64.992 61.1536C65.5573 61.1568 66.1211 61.2104 66.677 61.3136C66.7186 61.3216 66.7618 61.3264 66.8018 61.3328C67.3375 61.438 67.8631 61.5885 68.3732 61.7825L68.5076 61.8321C69.0068 62.0321 69.4885 62.2735 69.9477 62.5538C69.9925 62.581 70.0373 62.6066 70.0805 62.6354C70.5382 62.9234 70.9706 63.2492 71.3734 63.6099L71.4326 63.6643C67.7911 68.9811 62.3914 72.8435 56.1832 74.5725C54.0658 69.7206 56.2822 64.0711 61.1339 61.9537ZM69.4875 79.2393C68.1027 79.973 66.5592 80.356 64.992 80.3552C62.3524 80.3544 59.8306 79.2629 58.0234 77.3389C64.2168 75.3833 69.6277 71.5082 73.4728 66.2739C75.9527 70.9547 74.1683 76.7597 69.4875 79.2393Z" fill="#EC405D"/>
<path d="M32.9895 57.9531C32.5363 57.9541 32.0832 57.9787 31.6326 58.0267C31.5334 58.0379 31.4358 58.0587 31.3366 58.0715C30.9877 58.1179 30.6421 58.1691 30.3029 58.2428C30.1909 58.2668 30.0821 58.3004 29.9717 58.3276C29.6516 58.406 29.3316 58.4876 29.0116 58.5932C28.8916 58.6316 28.7747 58.6796 28.6563 58.7228C28.3603 58.83 28.0675 58.942 27.7827 59.07C27.653 59.1276 27.5282 59.1916 27.4018 59.2524C27.1346 59.3837 26.8706 59.5197 26.6145 59.6669C26.4833 59.7437 26.3537 59.8269 26.2241 59.9053C25.9809 60.0573 25.7441 60.2157 25.5104 60.3854C25.384 60.4766 25.2592 60.571 25.1344 60.667C24.9056 60.8462 24.6848 61.0334 24.4687 61.2254C24.3567 61.3262 24.2447 61.4254 24.1359 61.5295C23.9071 61.7487 23.6911 61.9791 23.4783 62.2143C23.4158 62.2847 23.347 62.3455 23.2846 62.4159C23.2786 62.4277 23.2716 62.4389 23.2638 62.4495C18.6708 67.8136 19.2959 75.8858 24.66 80.4788C30.0243 85.0718 38.0962 84.4468 42.6892 79.0827C43.1693 78.522 43.5997 77.921 43.9761 77.2861C43.9858 77.2701 44.0018 77.2589 44.0114 77.2429C44.021 77.2269 44.0338 77.1933 44.0482 77.1693C44.5892 76.2394 45.0102 75.2447 45.3011 74.209C45.3283 74.1146 45.3491 74.0346 45.3715 73.9546C45.4793 73.5326 45.5659 73.1053 45.6307 72.6745C45.6499 72.5545 45.6707 72.4377 45.6851 72.3177C45.7527 71.7992 45.7879 71.2772 45.7907 70.7543C45.7827 63.6877 40.0562 57.9611 32.9895 57.9531ZM32.9895 80.3552C27.6924 80.3582 23.3958 76.0664 23.3928 70.7693C23.392 69.2022 23.7751 67.6586 24.5087 66.2739C28.3555 71.5084 33.768 75.3831 39.963 77.3373C38.155 79.2631 35.631 80.3554 32.9895 80.3552ZM41.7903 74.5691C35.5822 72.8401 30.1825 68.9777 26.5409 63.6609L26.6001 63.6065C27.003 63.2458 27.4354 62.92 27.8931 62.632C27.9363 62.6032 27.9811 62.5776 28.0259 62.5504C28.4851 62.2701 28.9668 62.0289 29.466 61.8287L29.6004 61.7791C30.1105 61.5851 30.6361 61.4346 31.1718 61.3294C31.2118 61.3294 31.255 61.3182 31.2966 61.3102C36.4895 60.3531 41.4749 63.7869 42.4322 68.9798C42.54 69.565 42.593 70.1593 42.5904 70.7543C42.5884 72.0674 42.316 73.366 41.7903 74.5691Z" fill="#EC405D"/>
</svg>
